<svg width="33" height="41" viewBox="0 0 33 41" fill="none" xmlns="http://www.w3.org/2000/svg">
<path d="M9.90538 40.32C6.99837 40.32 4.61175 39.5037 2.74551 37.8711C0.915171 36.2021 0 33.7894 0 30.633C0 28.7101 0.39478 27.023 1.18434 25.5717C1.9739 24.0842 3.12235 22.7599 4.62969 21.599C6.17292 20.4017 8.03915 19.277 10.2284 18.2248C9.54649 17.0638 8.93638 15.8121 8.39804 14.4697C7.85971 13.091 7.59054 11.6398 7.59054 10.116C7.59054 8.26562 7.98532 6.61482 8.77488 5.16357C9.60033 3.67605 10.7847 2.49691 12.3279 1.62616C13.8711 0.755412 15.7374 0.320038 17.9266 0.320038C19.6852 0.320038 21.1925 0.646569 22.4486 1.29963C23.7406 1.91641 24.7276 2.8053 25.4095 3.96629C26.1272 5.12729 26.4861 6.50598 26.4861 8.10235C26.4861 9.91641 26.0016 11.4765 25.0326 12.7826C24.0995 14.0887 22.8434 15.2497 21.2643 16.2656C19.6852 17.2452 17.9445 18.2248 16.0424 19.2044L23.1484 29.218C24.3328 28.1658 25.3377 26.9686 26.1631 25.6262C26.9886 24.2475 27.6884 22.8325 28.2626 21.3813H33C32.3899 22.8688 31.708 24.2656 30.9543 25.5717C30.2007 26.8779 29.3573 28.1114 28.4241 29.2724C27.5269 30.4334 26.5579 31.5219 25.5171 32.5377L30.8467 39.7758H25.248L22.2871 35.5309C20.6003 36.9096 18.8059 38.0525 16.9038 38.9595C15.0016 39.8665 12.6688 40.32 9.90538 40.32ZM10.8206 36.3472C12.1126 36.3472 13.279 36.1658 14.3197 35.803C15.3605 35.4402 16.3475 34.9686 17.2806 34.3881C18.2137 33.7713 19.1289 33.1001 20.0261 32.3745L12.2202 21.1636C10.9282 21.8529 9.70799 22.5967 8.55954 23.3949C7.41109 24.1931 6.47798 25.1545 5.7602 26.2792C5.04241 27.3677 4.68352 28.7101 4.68352 30.3064C4.68352 31.54 4.93475 32.6103 5.43719 33.5173C5.97553 34.4243 6.71126 35.1318 7.64437 35.6398C8.57749 36.1114 9.63622 36.3472 10.8206 36.3472ZM14.1582 16.2112C15.0196 15.7758 15.8989 15.3042 16.7961 14.7962C17.6933 14.2883 18.5188 13.7441 19.2724 13.1636C20.062 12.5468 20.69 11.8575 21.1566 11.0955C21.6591 10.3336 21.9103 9.46289 21.9103 8.4833C21.9103 7.21346 21.5514 6.17945 20.8336 5.38126C20.1158 4.58308 19.075 4.18398 17.7113 4.18398C16.5269 4.18398 15.522 4.41981 14.6966 4.89147C13.8711 5.36312 13.2251 6.05246 12.7586 6.95949C12.3279 7.83024 12.1126 8.88239 12.1126 10.116C12.1126 11.2044 12.2741 12.2565 12.5971 13.2724C12.956 14.252 13.4763 15.2316 14.1582 16.2112Z" fill="#272C26"/>
</svg>
