<svg width="232" height="38" viewBox="0 0 232 38" fill="none" xmlns="http://www.w3.org/2000/svg">
<path d="M7.31819 7.144V33.688C7.31819 35.032 7.60619 36.136 8.18219 37H3.19019C3.71819 36.136 4.00619 35.032 4.00619 33.688V13.72C3.71819 13.768 3.43019 13.816 3.19019 13.816C1.70219 13.816 0.886188 13.24 0.694188 12.088C0.838188 12.136 1.03019 12.136 1.17419 12.136C1.94219 12.136 2.56619 11.848 3.09419 11.32C3.71819 10.696 4.00619 9.832 4.00619 8.776V7.144C4.00619 5.8 3.71819 4.696 3.19019 3.832H8.18219C7.60619 4.696 7.31819 5.8 7.31819 7.144ZM51.2108 30.376C52.3148 30.568 52.8908 31.384 52.8908 32.872C52.8908 33.928 52.5068 34.84 51.7388 35.656C50.7788 36.568 49.4828 37 47.8988 37H20.4908V35.32C20.4908 31.912 22.0748 29.224 25.2908 27.256C26.5868 26.488 28.1708 25.768 30.0908 25.096L32.7308 24.232L34.0268 23.848L35.3708 23.512C40.0748 22.168 43.2908 20.968 45.0668 19.864C47.5148 18.376 48.7148 16.312 48.7148 13.768C48.7148 11.416 47.6108 9.544 45.4028 8.248C43.1948 6.952 40.1228 6.28 36.2348 6.28C32.2988 6.28 29.1308 7 26.7308 8.392C25.7708 8.968 25.0508 9.592 24.5228 10.312C24.0428 10.936 23.8028 11.512 23.8028 12.04C23.8028 13.144 24.1388 13.96 24.7628 14.584C25.2908 15.112 25.9148 15.4 26.6348 15.4C26.7788 15.4 26.9708 15.4 27.1148 15.352C26.9228 16.504 26.1068 17.08 24.6188 17.08C23.5628 17.08 22.6508 16.696 21.8828 15.88C20.9708 14.968 20.4908 13.672 20.4908 12.04V11.992C20.5388 9.64 21.9308 7.576 24.7148 5.8C27.7388 3.928 31.5788 2.968 36.2348 2.968C41.6108 2.968 45.6908 4.12 48.5228 6.376C50.8748 8.344 52.0268 10.792 52.0268 13.768C52.0268 17.512 50.2988 20.488 46.8908 22.648C45.5948 23.512 43.9148 24.28 41.8508 25L39.0668 25.912L37.6748 26.296L36.2828 26.68C32.2988 27.784 29.5628 28.744 27.9788 29.56C25.8188 30.664 24.4748 32.008 23.9948 33.688H47.8988C48.9548 33.688 49.8188 33.4 50.4428 32.776C50.9708 32.248 51.2588 31.576 51.2588 30.856C51.2588 30.712 51.2588 30.52 51.2108 30.376ZM58.9981 33.592C59.4781 33.112 60.0541 32.872 60.7741 32.872C61.4461 32.872 62.0221 33.112 62.5021 33.592C63.0301 34.072 63.2701 34.648 63.2701 35.368C63.2701 36.04 63.0301 36.616 62.5021 37.096C62.0221 37.624 61.4461 37.864 60.7741 37.864C60.0541 37.864 59.4781 37.624 58.9981 37.096C58.5181 36.616 58.2781 36.04 58.2781 35.368C58.2781 34.648 58.5181 34.072 58.9981 33.592ZM73.2886 10.168C70.2646 12.76 68.7286 16.168 68.7286 20.392C68.7286 24.616 70.2646 28.024 73.2886 30.616C76.3606 33.208 80.3926 34.504 85.3366 34.504C90.2806 34.504 94.3126 33.208 97.3846 30.616C100.409 28.024 101.945 24.616 101.945 20.392C101.945 16.168 100.409 12.76 97.3846 10.168C94.3126 7.576 90.2806 6.28 85.3366 6.28C80.3926 6.28 76.3606 7.576 73.2886 10.168ZM70.9846 32.968C67.2886 29.704 65.4166 25.528 65.4166 20.392C65.4166 15.256 67.2886 11.08 70.9846 7.864C74.6806 4.6 79.4806 2.968 85.3366 2.968C91.1926 2.968 95.9926 4.6 99.6886 7.864C103.385 11.08 105.257 15.256 105.257 20.392C105.257 25.528 103.385 29.704 99.6886 32.968C95.9926 36.232 91.1926 37.864 85.3366 37.864C79.4806 37.864 74.6806 36.232 70.9846 32.968ZM114.569 3.784H143.609C143.609 4.696 143.273 5.464 142.601 6.136C141.977 6.76 141.161 7.096 140.249 7.096H139.145L124.217 37H119.897C120.809 36.136 121.577 35.032 122.153 33.688L127.961 22.024H121.145C121.145 21.112 121.481 20.344 122.153 19.72C122.777 19.048 123.593 18.712 124.505 18.712H129.641L135.449 7.096H114.569C112.985 7.096 111.689 6.664 110.777 5.752C109.961 4.936 109.529 4.024 109.529 2.968C109.529 1.48 110.105 0.663999 111.257 0.471998C111.209 0.615999 111.209 0.808 111.209 0.951998C111.209 1.672 111.497 2.344 112.025 2.872C112.649 3.496 113.513 3.784 114.569 3.784ZM148.154 33.592C148.634 33.112 149.21 32.872 149.93 32.872C150.602 32.872 151.178 33.112 151.658 33.592C152.186 34.072 152.426 34.648 152.426 35.368C152.426 36.04 152.186 36.616 151.658 37.096C151.178 37.624 150.602 37.864 149.93 37.864C149.21 37.864 148.634 37.624 148.154 37.096C147.674 36.616 147.434 36.04 147.434 35.368C147.434 34.648 147.674 34.072 148.154 33.592ZM188.461 30.376C189.565 30.568 190.141 31.384 190.141 32.872C190.141 33.928 189.757 34.84 188.989 35.656C188.029 36.568 186.733 37 185.149 37H157.741V35.32C157.741 31.912 159.325 29.224 162.541 27.256C163.837 26.488 165.421 25.768 167.341 25.096L169.981 24.232L171.277 23.848L172.621 23.512C177.325 22.168 180.541 20.968 182.317 19.864C184.765 18.376 185.965 16.312 185.965 13.768C185.965 11.416 184.861 9.544 182.653 8.248C180.445 6.952 177.373 6.28 173.485 6.28C169.549 6.28 166.381 7 163.981 8.392C163.021 8.968 162.301 9.592 161.773 10.312C161.293 10.936 161.053 11.512 161.053 12.04C161.053 13.144 161.389 13.96 162.013 14.584C162.541 15.112 163.165 15.4 163.885 15.4C164.029 15.4 164.221 15.4 164.365 15.352C164.173 16.504 163.357 17.08 161.869 17.08C160.813 17.08 159.901 16.696 159.133 15.88C158.221 14.968 157.741 13.672 157.741 12.04V11.992C157.789 9.64 159.181 7.576 161.965 5.8C164.989 3.928 168.829 2.968 173.485 2.968C178.861 2.968 182.941 4.12 185.773 6.376C188.125 8.344 189.277 10.792 189.277 13.768C189.277 17.512 187.549 20.488 184.141 22.648C182.845 23.512 181.165 24.28 179.101 25L176.317 25.912L174.925 26.296L173.533 26.68C169.549 27.784 166.813 28.744 165.229 29.56C163.069 30.664 161.725 32.008 161.245 33.688H185.149C186.205 33.688 187.069 33.4 187.693 32.776C188.221 32.248 188.509 31.576 188.509 30.856C188.509 30.712 188.509 30.52 188.461 30.376ZM206.232 27.88H222.984V11.128L206.232 27.88ZM226.296 7.096V27.88C227.352 27.88 228.216 27.592 228.84 26.968C229.368 26.44 229.656 25.768 229.656 25.048C229.656 24.904 229.656 24.712 229.608 24.52C230.76 24.76 231.336 25.576 231.336 27.016C231.336 28.12 230.952 29.032 230.136 29.848C229.176 30.76 227.88 31.192 226.296 31.192V33.688C226.296 35.032 226.584 36.136 227.112 37H222.12C222.696 36.136 222.984 35.032 222.984 33.688V31.192H198.216L222.936 6.424C222.84 5.32 222.552 4.456 222.12 3.784H227.112C226.584 4.648 226.296 5.752 226.296 7.096Z" fill="#191917"/>
</svg>
