<svg width="425" height="134" viewBox="0 0 425 134" fill="none" xmlns="http://www.w3.org/2000/svg">
<path d="M440.376 87.2317C437.417 85.5286 435.477 82.8564 433.378 80.3213C428.339 74.2331 421.85 70.1613 414.462 67.3423C409.104 65.2966 403.515 64.2102 397.867 63.2999C394.727 62.8007 391.868 61.5478 389.489 59.4531C387.429 57.6326 386.26 55.489 386.569 52.5819C387.039 48.0403 387.059 43.479 386.889 38.5556C388.359 40.5818 389.629 42.3338 390.908 44.0957C391.148 44.4285 391.038 44.8004 391.028 45.1626C390.998 46.6406 391.458 47.913 392.818 48.6961C394.307 49.5574 395.857 49.5281 397.337 48.6961C398.696 47.9424 399.206 46.4938 398.756 44.9962C398.176 43.0679 395.627 40.9635 393.178 41.9325C392.628 42.1478 392.328 41.9619 391.988 41.6095C388.949 38.3794 386.799 34.7285 386.34 30.2749C385.93 26.2129 385.38 22.1802 384.7 18.1573C384.64 17.7756 384.44 17.384 384.63 16.9338C385.67 18.3922 386.629 19.8604 387.709 21.2405C391.068 25.4983 394.807 29.3842 399.776 31.8704C403.385 33.6714 407.354 34.337 411.313 34.9634C415.012 35.5507 418.731 36.0401 422.34 37.1168C423.14 37.3517 423.97 37.4006 424.44 36.5687C424.92 35.7269 424.41 35.0613 423.78 34.5425C421.591 32.7415 419.701 30.6567 418.101 28.376C413.253 21.4461 406.424 17.6385 398.246 15.7788C395.117 15.0643 392.008 14.291 388.909 13.459C386.369 12.7739 384.66 11.2959 383.51 8.82926C381.431 4.38548 380.901 -0.342155 380.281 -5.06C379.721 -9.25908 379.331 -13.4875 379.631 -17.7356C379.661 -18.176 379.631 -18.6361 379.561 -19.0765C379.421 -19.8889 378.991 -20.4566 378.062 -20.3979C377.182 -20.3392 376.862 -19.703 376.832 -18.9591C376.782 -17.8236 376.662 -16.6589 376.802 -15.543C377.062 -13.4386 376.132 -12.0487 374.692 -11.0895C374.872 -10.0715 375.022 -9.0829 375.142 -8.13346C375.442 -8.2607 375.742 -8.39773 376.042 -8.53477C375.812 -8.05515 375.542 -7.66363 375.242 -7.32105C375.372 -6.16605 375.452 -5.03064 375.482 -3.89522C375.742 -4.09098 376.012 -4.30632 376.272 -4.52166C376.342 -4.58039 376.492 -4.56081 376.702 -4.59018C376.392 -3.78756 375.972 -3.10239 375.492 -2.51511C375.472 -1.2916 375.392 -0.0289364 375.242 1.30224C376.252 0.656229 377.172 -0.165968 378.002 -1.17414C378.362 0.851992 378.691 2.7313 379.021 4.61061C379.031 4.68891 379.001 4.77701 379.031 4.85531C380.371 8.30071 378.222 10.9435 376.862 13.7624C376.672 14.1638 376.382 14.5259 376.132 14.8979C375.732 15.5145 375.472 16.3857 374.892 16.6891C374.223 17.0415 373.863 16.0039 373.253 15.7103C370.753 14.4868 367.444 16.6401 367.264 19.6744C367.104 22.1802 368.884 24.3238 371.143 24.3629C373.773 24.4119 375.642 22.5032 375.582 19.8213C375.582 19.371 375.462 18.9306 375.822 18.5488C377.922 16.2976 378.971 13.4884 380.081 10.7184C380.371 10.7575 380.381 10.9631 380.421 11.1588C382.431 20.2617 383.96 29.4234 384.13 38.7612C384.16 40.3664 384.15 40.3762 382.5 40.1315C379.271 39.6519 376.452 38.1054 373.503 36.8819C368.784 34.9243 364.015 33.0743 359.156 31.4593C352.098 29.1004 344.92 29.1004 337.682 30.4217C334.863 30.9405 332.073 31.6061 329.184 31.7333C328.354 31.7725 327.514 32.1347 327.185 32.9862C326.845 33.8671 327.474 34.4349 328.084 34.9634C331.064 37.5572 333.413 40.6699 335.802 43.7727C340.281 49.577 345.61 54.4417 352.478 57.4466C357.987 59.8545 363.785 60.8724 369.794 60.3634C374.882 59.9328 379.231 57.8283 382.77 54.197C382.99 53.9718 383.22 53.7467 383.71 53.2573C383.47 55.949 383.3 58.3177 383.05 60.6864C382.67 64.2591 381.971 67.7828 381.051 71.2674C380.321 74.0374 378.711 76.2103 376.762 78.1679C375.342 79.597 373.703 80.8107 372.173 82.1419C371.763 82.4943 371.363 82.6019 370.823 82.553C363.435 81.8972 356.097 82.367 348.799 83.4926C348.209 83.5807 347.869 83.5024 347.509 82.9347C345.47 79.6851 340.731 79.6557 338.622 82.8564C337.732 84.2072 337.402 85.7145 337.512 87.3002C337.712 89.9528 339.182 91.6363 341.571 92.0376C343.96 92.4389 346.67 91.0099 347.639 88.8467C347.709 88.6999 347.799 88.5433 347.809 88.3867C347.999 86.5563 349.169 86.1452 350.879 85.9103C356.547 85.1273 362.226 84.814 367.944 85.0979C368.144 85.1077 368.344 85.1468 368.604 85.1762C368.274 85.6069 367.834 85.5775 367.464 85.695C359.516 88.1322 352.198 91.7929 345.46 96.5695C345.02 96.8827 344.7 96.8729 344.23 96.7163C340.911 95.6299 338.252 97.5287 338.222 100.955C338.222 101.992 338.452 102.981 338.892 103.92C339.871 106.064 341.951 107.092 344.2 106.553C346.47 106.015 347.899 104.038 347.709 101.708C347.679 101.385 347.629 101.062 347.549 100.739C347.243 99.4276 347.673 98.3705 348.839 97.5679C354.848 93.408 361.476 90.4617 368.444 88.2105C369.304 87.9364 370.184 87.6819 371.343 87.6428C370.114 88.4846 369.024 89.1697 368.014 89.9332C362.566 94.0638 358.157 99.1633 353.978 104.478C352.858 105.898 351.808 107.366 350.749 108.834C350.479 109.206 350.319 109.539 349.689 109.372C346.81 108.638 345.02 109.265 344.07 111.271C342.931 113.669 343.65 116.635 345.73 118.093C347.559 119.366 349.889 119.376 351.558 118.113C353.198 116.87 353.728 114.814 352.798 112.7C352.438 111.878 352.528 111.31 352.998 110.576C357.467 103.715 362.895 97.6853 369.244 92.4389C370.264 91.5972 371.353 90.8435 372.523 90.1975C372.803 90.0409 373.103 89.9136 373.443 89.7472C373.553 90.3443 373.103 90.6086 372.863 90.9316C367.064 98.6054 362.286 106.847 358.637 115.705C358.177 116.831 357.727 117.536 356.187 117.389C354.378 117.213 352.828 118.103 352.088 119.836C351.308 121.666 351.478 123.467 352.868 124.984C354.468 126.736 356.457 127.617 358.896 127.196C361.646 126.717 362.965 124.544 362.156 121.921C361.906 121.128 361.576 120.345 360.996 119.767C360.276 119.053 360.336 118.426 360.716 117.594C364.325 109.607 368.214 101.767 373.553 94.7C373.773 94.4063 374.013 94.1225 374.253 93.8386C374.293 93.7897 374.383 93.7897 374.463 93.7603C374.662 93.9267 374.543 94.1323 374.493 94.2987C371.923 103.088 369.344 111.878 366.794 120.678C366.485 121.754 365.815 122.41 364.795 122.811C362.765 123.604 361.826 125.16 362.076 127.245C362.326 129.36 363.935 131.063 365.945 131.347C368.154 131.66 369.884 130.906 370.843 129.203C371.743 127.607 371.463 125.18 369.974 123.624C369.224 122.841 369.214 122.204 369.494 121.255C372.023 112.749 374.493 104.224 376.982 95.7081C377.132 95.209 377.312 94.7098 377.572 94.2302C377.882 96.2367 377.792 98.2433 377.782 100.25C377.722 107.679 377.172 115.079 376.302 122.449C376.232 123.007 376.172 123.457 375.512 123.653C372.793 124.485 372.243 127.686 372.953 129.79C374.083 133.108 379.081 134.322 381.711 131.973C383.01 130.808 383.39 129.36 382.88 127.735C382.341 126.002 381.311 124.583 379.691 123.643C379.271 123.399 378.951 123.232 379.021 122.645C379.951 114.501 380.611 106.328 380.621 98.1258C380.621 98.0671 380.701 97.9986 380.841 97.793C381.211 99.0263 381.551 100.152 381.891 101.268C383.68 107.317 384.89 113.473 385.32 119.767C385.37 120.54 385.25 120.942 384.42 121.177C383.25 121.519 382.61 122.41 382.391 123.594C381.791 126.717 384.8 129.78 387.899 129.203C389.829 128.841 391.368 127.461 391.608 125.846C391.868 124.123 390.828 122.165 389.059 121.314C388.459 121.02 388.179 120.707 388.139 120.051C387.559 111.369 385.55 102.971 382.75 94.7391C382.63 94.377 382.361 94.0246 382.51 93.4765C384.59 96.0312 386.31 98.7033 387.939 101.444C390.288 105.408 392.288 109.539 394.068 113.767C394.247 114.198 394.487 114.55 394.018 115.069C392.678 116.537 392.388 118.27 393.248 120.071C393.988 121.607 395.347 122.234 397.037 122.116C399.136 121.97 400.506 120.795 401.276 118.965C402.615 115.754 400.856 113.17 397.357 113.16C396.757 113.16 396.667 112.876 396.517 112.495C395.217 109.167 393.518 106.035 391.878 102.863C389.799 98.8403 387.279 95.1013 384.5 91.4895C384.75 91.2937 384.9 91.4993 385.01 91.5874C390.518 95.6788 396.167 99.5842 401.396 104.018C402.086 104.596 402.525 105.075 402.285 106.152C401.836 108.149 403.575 110.204 405.615 110.429C407.684 110.655 409.534 109.157 409.794 107.072C410.153 104.106 407.604 101.796 404.655 102.442C404.265 102.53 403.995 102.599 403.645 102.305C397.777 97.284 391.338 92.9773 385.2 88.2986C384.5 87.77 384.21 87.2121 384.2 86.3606C384.17 83.8744 383.81 81.4078 383.44 78.951C383.09 76.641 383.32 74.2919 383.77 72.021C384.24 69.6719 385.01 67.3717 385.63 65.1204C385.48 65.003 385.61 65.0519 385.64 65.14C388.989 73.4794 395.117 79.411 402.735 84.031C411.423 89.3068 420.851 91.5091 431.048 90.452C433.857 90.1583 436.687 89.9038 439.516 89.9136C440.276 89.9136 440.936 89.6689 441.176 88.8761C441.405 88.1126 440.946 87.5645 440.366 87.2317H440.376ZM413.962 27.9551C410.183 25.8018 406.114 24.7055 402.235 23.159C398.376 21.6223 394.837 19.5276 391.508 17.0904C404.195 19.7332 411.563 23.2862 413.972 27.9551H413.962ZM391.528 20.5162C395.247 22.9437 399.146 25.0383 403.365 26.5163C405.795 27.3679 408.274 28.0922 410.583 29.2668C412.523 30.2553 414.362 31.3908 416.242 32.8492C404.625 32.2815 393.448 26.6435 390.408 19.8506C390.828 20.0953 391.198 20.2911 391.538 20.5064L391.528 20.5162ZM380.701 45.8477C377.432 48.422 374.233 50.869 370.094 51.5444C362.146 52.8266 355.227 50.7516 349.569 45.0941C346.65 42.1674 343.71 39.3093 340.051 37.244C339.491 36.9308 338.872 36.6274 338.472 35.9912C340.511 36.735 342.651 37.0581 344.53 38.0564C346.43 39.0646 348.249 40.2294 350.079 41.3452C359.476 47.0712 369.444 48.9603 380.201 45.7303C380.291 45.7009 380.411 45.7792 380.691 45.8575L380.701 45.8477ZM359.256 34.337C366.425 36.7448 373.293 39.877 380.561 42.7547C377.412 43.7531 374.433 44.4285 371.343 44.5557C363.685 44.8689 356.857 42.4709 350.539 38.4284C347.639 36.5687 344.67 34.8557 341.271 33.9944C340.471 33.7888 339.701 33.4463 338.722 33.1037C344.61 31.5669 352.828 32.1738 359.256 34.337ZM382.69 50.1153C379.941 53.825 376.412 56.4678 371.763 57.3096C364.515 58.631 357.667 57.2117 351.248 53.8152C343.5 49.714 338.472 42.9309 333.313 36.0009C338.132 38.4969 342.611 41.1103 346.23 44.9374C347.189 45.9554 348.199 46.9244 349.229 47.8837C356.017 54.1774 369.174 57.2019 378.941 50.0175C380.701 48.7254 382.411 47.404 384.12 45.6324C383.71 47.3551 383.64 48.8429 382.7 50.1251L382.69 50.1153ZM345.49 86.7912C345.01 88.6216 343.46 89.6983 341.861 89.3166C340.551 89.0033 339.981 87.4177 340.491 85.5188C340.971 83.708 342.141 82.9935 343.72 83.3067C344.95 83.5514 346.09 85.5286 345.49 86.7912ZM343.61 103.901C342.781 104.175 342.161 103.862 341.701 103.176C341.131 102.325 340.921 101.405 341.071 100.573C341.401 99.1731 342.571 98.6739 343.56 99.4178C344.48 100.103 345.05 101.033 345 102.227C344.96 103.118 344.43 103.627 343.62 103.891L343.61 103.901ZM348.129 116.302C346.89 115.989 346.09 114.462 346.43 113.043C346.69 111.986 347.339 111.555 348.319 111.78C349.449 112.044 350.669 113.924 350.429 115.01C350.189 116.058 349.259 116.576 348.129 116.292V116.302ZM359.436 124.005C358.867 124.749 357.897 124.661 356.927 124.505C356.707 124.397 356.397 124.28 356.117 124.113C355.117 123.565 354.398 122.821 354.498 121.607C354.548 120.971 354.798 120.452 355.497 120.208C356.747 119.767 357.647 120.394 358.517 121.089C358.737 121.265 358.906 121.51 359.056 121.744C359.506 122.439 360.006 123.252 359.436 123.986V124.005ZM368.534 127.617C368.304 128.508 367.464 128.899 366.345 128.645C365.295 128.41 364.615 127.333 364.885 126.325C365.035 125.758 366.774 124.818 367.414 124.965C368.034 125.102 368.744 126.805 368.534 127.617ZM385.15 124.211C385.6 123.095 386.549 123.487 387.289 123.575C388.349 123.868 389.079 124.867 388.849 125.572C388.629 126.237 387.409 126.756 386.629 126.511C385.79 126.247 384.87 124.906 385.15 124.211ZM396.437 117.017C396.547 116.899 396.667 116.772 396.747 116.635C397.117 116.009 397.647 115.558 398.366 115.94C399.026 116.292 399.046 116.997 398.826 117.819C398.766 117.937 398.666 118.211 398.506 118.436C397.897 119.337 396.697 119.699 396.057 119.209C395.377 118.681 395.497 117.966 396.437 117.017ZM405.165 106.367C405.455 105.937 405.325 104.899 406.154 105.144C406.894 105.349 407.144 106.152 407.094 106.925C406.844 107.483 406.394 107.806 405.815 107.659C405.165 107.493 404.795 106.925 405.165 106.367ZM378.072 125.914C379.091 126.129 380.541 128.342 380.311 129.33C380.121 130.182 378.781 130.701 377.562 130.407C375.982 130.025 375.162 128.753 375.552 127.284C375.752 126.531 377.222 125.728 378.072 125.914ZM428.489 78.9803C427.979 79.1076 427.829 78.8727 427.639 78.7259C423.08 75.4077 417.961 73.1956 412.633 71.375C407.934 69.7698 403.275 68.0764 398.586 66.432C409.754 67.7828 419.961 71.2869 428.489 78.9803ZM396.317 67.8905C402.455 70.3179 408.754 72.3245 414.962 74.5855C419.551 76.2593 423.77 78.5888 427.599 81.6916C422.29 80.0081 416.982 78.3245 411.683 76.6312C408.034 75.4664 404.455 74.1353 401.146 72.1972C398.486 70.6311 395.947 68.8888 393.678 66.7942C394.587 67.1172 395.427 67.5381 396.307 67.8905H396.317ZM394.897 74.2527C398.406 76.7976 401.726 79.5774 405.235 82.1223C401.336 80.0766 397.857 77.4926 394.897 74.2527ZM411.363 85.1077C416.772 86.85 422.39 87.2904 428.009 87.7602C422.26 88.0735 416.652 87.5645 411.363 85.1077ZM412.263 82.9445C406.834 81.1044 402.805 77.2576 398.426 73.9003C403.145 76.6606 408.284 78.4126 413.473 80.0668C418.641 81.721 423.9 83.1305 428.879 85.3426C423.25 85.0587 417.642 84.7749 412.263 82.9445Z" fill="url(#paint0_linear_15_776)"/>
<path d="M408.024 46.5329C406.944 44.3306 406.654 41.8836 405.635 39.6617C405.305 38.9374 405.815 38.3207 406.614 38.3696C407.124 38.399 407.574 38.6143 407.994 38.8884C409.004 39.5344 409.973 40.2294 410.983 40.8656C415.372 43.665 419.871 46.3078 424.01 49.4693C428.009 52.5232 431.898 55.6652 434.907 59.7468C438.206 64.2297 441.076 68.9867 444.435 73.4207C444.795 73.8905 445.115 74.3702 444.665 74.9183C444.215 75.4664 443.655 75.2707 443.115 75.0357C439.196 73.3326 435.237 71.7176 431.368 69.897C422.4 65.6686 415.242 59.5315 410.333 50.9767C409.464 49.5574 408.754 48.0403 408.014 46.5427L408.024 46.5329ZM435.677 67.5675C434.407 65.2477 416.142 48.0305 412.213 45.4856C416.122 52.3372 429.618 65.003 435.677 67.5675ZM410.323 46.3371C411.963 53.5607 423.79 64.9443 433.347 68.5952C424.18 62.7713 416.742 55.2247 410.323 46.3371ZM436.027 64.9247C431.748 57.1921 424.79 52.161 417.572 47.3845C423.82 53.1301 430.378 58.5624 436.027 64.9247Z" fill="url(#paint1_linear_15_776)"/>
<path d="M203.036 12.3138C200.837 13.459 198.337 13.831 196.118 14.9174C195.388 15.2698 194.738 14.7902 194.758 14.0072C194.758 13.508 194.978 13.0577 195.228 12.6368C195.848 11.6287 196.518 10.6401 197.128 9.63189C199.807 5.22726 202.336 0.724745 205.396 -3.45476C208.355 -7.48744 211.404 -11.4125 215.453 -14.5251C219.892 -17.9313 224.641 -20.9265 229.04 -24.3816C229.509 -24.7536 229.979 -25.0766 230.559 -24.6655C231.139 -24.2446 230.959 -23.6965 230.739 -23.1581C229.15 -19.2527 227.66 -15.3179 225.95 -11.4614C221.991 -2.5151 216.003 4.71828 207.465 9.85701C206.045 10.7575 204.536 11.521 203.026 12.304L203.036 12.3138ZM223.421 -15.5626C221.102 -14.2314 204.246 4.31697 201.796 8.26156C208.635 4.17015 221.042 -9.53315 223.421 -15.5626ZM202.746 10.0723C210.054 8.18325 221.212 -3.82671 224.561 -13.3211C218.972 -4.13014 211.564 3.44583 202.746 10.0723ZM220.702 -15.8073C212.974 -11.3146 208.115 -4.31611 203.526 2.93685C209.145 -3.40582 214.433 -10.0323 220.702 -15.8073Z" fill="url(#paint2_linear_15_776)"/>
<path d="M8.57561 25.283C6.23621 26.1346 3.71685 26.1737 1.35745 26.9568C0.587644 27.2113 0.00779182 26.6533 0.127761 25.8801C0.207741 25.3809 0.467676 24.96 0.777597 24.588C1.52741 23.668 2.3272 22.7773 3.06702 21.8572C6.32619 17.8441 9.44539 13.7135 13.0445 9.96468C16.5236 6.35288 20.0827 2.85854 24.5216 0.303856C29.3903 -2.49553 34.499 -4.83488 39.3278 -7.69299C39.8377 -7.99642 40.3475 -8.2607 40.8674 -7.7713C41.3873 -7.2819 41.1373 -6.75334 40.8474 -6.25415C38.7479 -2.59341 36.7285 1.11627 34.509 4.70849C29.3703 13.0577 22.4521 19.4493 13.2944 23.4331C11.7648 24.1378 10.1652 24.6957 8.56562 25.2732L8.57561 25.283ZM32.5795 0.313644C30.1001 1.3316 10.865 17.5113 7.90578 21.1035C15.2439 17.942 29.4003 5.97115 32.5795 0.313644ZM8.6056 23.022C16.1037 22.1019 28.8005 11.6482 33.4093 2.68236C26.621 11.0707 18.2432 17.6092 8.6056 23.022ZM29.9302 -0.283427C21.6623 3.15218 15.8838 9.46549 10.3552 16.0529C16.7835 10.503 22.932 4.6204 29.9302 -0.283427Z" fill="url(#paint3_linear_15_776)"/>
<path d="M340.211 20.2128C336.962 21.035 333.593 20.7707 330.344 21.5048C329.274 21.7397 328.594 20.9371 328.874 19.9289C329.054 19.2927 329.474 18.7642 329.944 18.3139C331.084 17.1981 332.273 16.1312 333.413 15.0153C338.362 10.1507 343.141 5.1098 348.499 0.64644C353.678 -3.66031 358.957 -7.80066 365.245 -10.5903C372.153 -13.6441 379.321 -16.0814 386.18 -19.2331C386.909 -19.5659 387.629 -19.8498 388.249 -19.145C388.859 -18.4403 388.459 -17.7747 387.989 -17.1483C384.64 -12.6066 381.391 -7.98663 377.892 -3.54285C369.784 6.77377 359.596 14.3106 346.79 18.3726C344.64 19.1067 342.421 19.6353 340.211 20.1932V20.2128ZM375.962 -9.56252C372.503 -8.53477 344.43 10.2877 339.941 14.6336C350.199 11.4035 370.863 -2.5249 375.962 -9.56252ZM340.581 17.247C350.719 16.9925 369.214 4.8651 376.712 -6.35203C366.405 3.80798 354.248 11.3448 340.581 17.247ZM372.513 -10.6784C360.966 -7.20359 352.328 0.352798 343.96 8.3105C353.368 1.8308 362.446 -5.11873 372.513 -10.6784Z" fill="url(#paint4_linear_15_776)"/>
<path d="M431.958 8.7999C434.287 11.1588 435.727 14.154 437.976 16.5618C438.716 17.3547 438.336 18.3335 437.307 18.588C436.647 18.7544 435.977 18.6565 435.347 18.4803C433.797 18.0594 432.258 17.57 430.708 17.1589C423.94 15.3481 417.112 13.7722 410.493 11.4133C404.105 9.13269 397.827 6.69546 392.238 2.71172C386.11 -1.65376 380.401 -6.55758 374.223 -10.8448C373.563 -11.3048 372.953 -11.7746 373.283 -12.6458C373.613 -13.5169 374.393 -13.4973 375.182 -13.4092C380.871 -12.8024 386.579 -12.3228 392.258 -11.5495C405.425 -9.74849 417.152 -4.80551 427.089 4.09184C428.809 5.55026 430.368 7.18487 431.958 8.79011V8.7999ZM387.849 -6.90995C390.468 -4.47272 421.061 10.1213 427.139 11.7853C419.201 4.64976 396.617 -6.05839 387.849 -6.90995ZM429.139 9.95489C423.9 1.45885 403.995 -8.29007 390.328 -9.13184C404.445 -5.38301 417.142 1.24351 429.139 9.95489ZM388.559 -3.41561C397.347 4.6987 408.334 8.3105 419.531 11.5014C409.124 6.69547 398.466 2.40829 388.559 -3.41561Z" fill="url(#paint5_linear_15_776)"/>
<path d="M235.028 43.3126C231.309 46.2393 227.17 48.4122 222.881 50.3502C218.112 52.5036 213.124 53.8935 207.965 54.7549C204.606 55.3128 201.227 55.6554 197.807 55.7533C193.898 55.8609 190.029 56.3503 186.2 57.1334C185.541 57.2704 184.921 57.3096 184.531 56.6244C184.121 55.9001 184.591 55.4303 185.041 54.9898C190.479 49.6357 196.278 44.7417 202.966 40.895C206.325 38.9667 209.834 37.4496 213.563 36.3925C220.192 34.5034 226.98 33.828 233.868 33.9259C235.398 33.9454 236.928 34.0727 238.377 34.5523C239.147 34.8068 239.407 34.5719 239.707 33.9259C241.586 29.7757 243.476 25.6256 245.635 21.6027C247.185 18.7152 248.854 15.8962 250.794 13.2143C250.374 12.9598 250.184 13.3416 249.984 13.4884C242.406 19.1361 233.748 21.9746 224.401 23.1688C219.972 23.7365 215.543 24.3727 211.174 25.283C210.204 25.4886 209.255 25.7724 208.305 26.0465C207.695 26.2129 207.165 26.1541 206.795 25.6158C206.425 25.0677 206.595 24.5391 206.985 24.0889C214.413 15.5634 222.501 7.85046 233.458 3.74926C238.957 1.69376 244.736 1.0869 250.584 0.881351C253.363 0.783471 256.103 1.14563 258.852 1.44906C259.622 1.53715 260.222 1.39033 260.741 0.803047C262.241 -0.909864 263.921 -2.44659 265.56 -4.02247C265.29 -4.19865 265.05 -4.06162 264.82 -4.00289C258.712 -2.49553 252.594 -2.73044 246.475 -3.94416C245.785 -4.0812 245.145 -4.31611 245.035 -5.11873C244.935 -5.82347 245.435 -6.215 245.985 -6.47927C251.004 -8.88714 256.113 -11.0014 261.771 -11.481C264.84 -11.7453 267.86 -11.5201 270.859 -10.9133C271.889 -10.7077 272.908 -10.3945 274.008 -10.5903C274.498 -10.6784 274.888 -10.3358 275.088 -9.89531C275.318 -9.38633 275.168 -8.84799 274.718 -8.5935C273.838 -8.08452 274.068 -7.48745 274.328 -6.76313C276.058 -1.7027 275.928 3.42625 274.668 8.54541C272.958 15.4754 270.109 21.9551 266.4 28.0726C265.93 28.8459 265.36 29.58 264.64 30.1477C263.691 30.9014 262.751 30.5196 262.601 29.3255C262.531 28.748 262.551 28.1411 262.571 27.5538C262.821 20.5162 262.931 13.459 264.391 6.51928C265.03 3.49477 266.01 0.577923 267.47 -2.47595C265.79 -1.1252 264.42 0.137459 263.221 1.54694C260.581 4.63018 257.742 7.55681 255.343 10.8456C254.783 11.6091 254.693 12.1278 255.173 13.0283C257.422 17.2862 258.512 21.818 258.612 26.6435C258.802 35.8443 256.043 44.2131 251.494 52.1219C250.274 54.2361 249.184 56.4286 247.515 58.259C247.125 58.6897 246.725 59.1106 246.075 58.9246C245.395 58.7288 245.155 58.1416 245.135 57.5445C244.935 50.4677 243.536 43.4497 244.186 36.3337C244.416 33.8182 244.626 31.2929 244.716 28.7186C244.296 29.5995 243.876 30.4707 243.476 31.3516C241.396 35.9128 239.317 40.4643 236.878 44.8493C236.688 45.1919 236.518 45.4366 236.818 45.8673C238.897 48.8429 239.777 52.2198 240.167 55.7435C240.886 62.3994 240.767 68.9672 238.217 75.3392C236.128 80.5562 232.919 85.0489 229.199 89.2382C226.89 91.8419 224.331 94.1812 221.401 96.1095C221.142 96.2856 220.872 96.4618 220.592 96.6087C220.072 96.8827 219.512 97.01 218.982 96.6576C218.452 96.3052 218.312 95.7277 218.452 95.1698C219.942 89.1893 219.982 82.9935 221.441 76.9934C223.131 70.0047 225.5 63.2803 228.77 56.8593C228.93 56.5559 229.06 56.2329 229.149 55.8609C228.21 56.4384 227.61 57.3585 226.81 58.073C225.73 59.0225 225.051 60.0698 224.831 61.5772C224.431 64.3276 222.891 66.6865 221.521 69.0748C215.723 79.2544 206.725 85.6852 195.868 89.8843C191.349 91.6363 186.63 92.8109 182.021 94.2987C181.392 94.5042 180.682 94.6902 180.162 94.0344C179.722 93.4961 179.862 92.8892 180.162 92.3606C183.411 86.6738 186.36 80.8107 190.709 75.7796C193.649 72.3734 197.048 69.5153 200.997 67.3325C206.805 64.1221 212.834 61.3618 219.152 59.2476C219.752 59.042 220.372 58.7876 220.992 58.7386C222.771 58.6016 224.011 57.7109 225.18 56.4482C228.92 52.396 232.489 48.2262 235.048 43.3224L235.028 43.3126ZM210.874 70.2102C208.735 69.5251 206.675 69.0748 204.636 68.5756C204.026 68.4288 203.546 68.5365 203.036 68.8399C200.807 70.1319 198.667 71.5414 196.658 73.1369C195.778 73.8318 194.888 74.5366 194.138 75.486C196.668 75.8677 199.077 76.2299 201.487 76.5823C201.946 76.6508 202.416 76.6018 202.806 76.3278C205.525 74.4093 208.195 72.4223 210.874 70.22V70.2102ZM216.633 44.0467C214.903 42.6568 213.294 41.3648 211.694 40.0532C211.294 39.7302 210.944 39.691 210.444 39.8672C207.065 41.0809 204.036 42.9113 201.047 44.8298C200.567 45.1332 200.597 45.3485 200.997 45.6618C201.576 46.1218 202.266 46.5035 202.666 47.0908C203.486 48.2556 204.426 48.3241 205.585 47.727C205.775 47.6292 205.985 47.5998 206.185 47.5313C209.654 46.3763 213.124 45.2115 216.623 44.0467H216.633ZM227.87 20.2128C231.119 19.6353 234.068 18.9501 236.947 17.9713C237.157 17.9028 237.287 17.756 237.417 17.5798C239.077 15.4558 240.587 13.2339 241.996 10.9435C242.176 10.6498 242.316 10.3268 242.606 9.77871C238.687 11.3644 235.058 12.8326 231.429 14.3008C231.239 14.3791 231.009 14.4868 230.919 14.6434C229.929 16.4248 228.96 18.216 227.87 20.2128ZM228.74 39.6029C227.69 38.585 226.36 38.1543 225.61 37.0483C225.31 36.6078 224.981 36.5099 224.461 36.5686C222.201 36.8427 219.972 37.2147 217.762 37.7334C216.373 38.0564 214.993 38.448 213.513 38.8297C215.133 40.4349 216.853 41.5997 218.512 42.8428C218.812 43.0679 219.112 43.1462 219.502 43.019C222.581 41.9912 225.62 40.8754 228.75 39.5834L228.74 39.6029ZM234.698 77.3262C236.208 74.2331 237.267 71.1988 237.797 67.9981C237.877 67.5479 237.817 67.1172 237.647 66.6767C236.888 64.7485 235.738 63.0062 234.878 61.0975C234.768 61.215 234.698 61.2542 234.678 61.3129C233.718 64.6115 232.779 67.9198 231.819 71.2184C231.739 71.4925 231.679 71.7665 231.849 72.021C232.959 73.6361 233.668 75.4664 234.688 77.3359L234.698 77.3262ZM232.329 6.74441C233.568 7.87003 234.878 8.70202 236.098 9.65146C236.558 10.0136 236.928 10.0038 237.437 9.80807C240.037 8.79011 242.636 7.78194 245.255 6.81292C247.245 6.06903 247.215 6.12775 245.945 4.42463C245.405 3.69053 244.855 3.51434 243.976 3.65138C241.906 3.97438 239.857 4.33654 237.827 4.84552C235.978 5.30556 234.148 5.80475 232.329 6.75419V6.74441ZM223.001 81.5252C223.831 81.0163 224.461 80.6149 225.091 80.243C226.54 79.4012 227.61 78.3245 228.02 76.6312C228.38 75.1532 228.99 73.7339 229.449 72.2755C230.079 70.269 230.679 68.2624 231.289 66.2461C230.299 66.755 229.559 67.4794 228.68 67.9688C226.13 69.3782 225.021 71.5904 224.511 74.3016C224.071 76.641 223.411 78.9412 222.991 81.5155L223.001 81.5252ZM270.459 -8.52498C263.351 -10.1498 256.672 -8.84799 250.254 -5.75496C257.252 -4.80551 264.041 -5.36343 270.459 -8.52498ZM223.481 43.6846C219.552 45.0353 215.883 46.2882 212.214 47.5606C212.054 47.6194 211.884 47.7173 211.784 47.8445C210.694 49.2638 209.614 50.7026 208.505 52.161C208.695 52.21 208.765 52.2589 208.815 52.2393C212.504 51.5248 216.103 50.5069 219.622 49.205C219.922 49.0974 220.192 48.9603 220.372 48.6667C221.351 47.0712 222.351 45.4856 223.481 43.6846ZM196.728 86.8793C196.948 86.8695 197.058 86.8891 197.148 86.8597C199.987 85.6754 202.696 84.2463 205.286 82.6019C205.466 82.4845 205.655 82.3866 205.695 82.1615C206.115 80.0668 206.535 77.9624 206.995 75.6328C204.606 77.3555 202.446 78.9314 200.257 80.4583C199.157 81.2218 198.067 81.858 197.887 83.4339C197.757 84.5987 197.148 85.7047 196.718 86.8989L196.728 86.8793ZM223.841 91.0197C224.091 90.9218 224.201 90.9022 224.271 90.8435C227.89 87.6232 230.939 83.9527 233.398 79.8025C233.528 79.5872 233.608 79.3621 233.478 79.1174C232.659 77.5317 231.839 75.946 230.909 74.1548C228.93 80.0375 226.75 85.5775 223.841 91.0295V91.0197ZM256.583 5.47196C256.423 5.42302 256.353 5.37408 256.293 5.38387C252.893 6.3431 249.484 7.27296 246.175 8.50626C245.755 8.66287 245.485 8.91736 245.255 9.29909C244.296 10.875 243.256 12.4019 242.316 13.9974C241.916 14.6727 241.256 15.2307 241.016 16.2682C246.625 13.0283 251.894 9.71998 256.572 5.48174L256.583 5.47196ZM234.478 10.9924C233.138 9.91574 231.939 8.95651 230.749 7.9777C230.389 7.68406 230.049 7.75258 229.679 7.94834C227.29 9.211 224.981 10.6107 222.781 12.2257C223.421 12.9598 224.041 13.6646 224.651 14.3693C224.901 14.6532 225.131 14.8196 225.55 14.6434C228.47 13.4297 231.399 12.2355 234.478 10.9729V10.9924ZM247.295 29.9128C248.804 28.4739 250.264 27.084 251.734 25.6941C251.984 25.4592 252.064 25.1753 252.104 24.8621C252.434 22.3564 252.843 19.8604 252.853 17.3253C252.853 16.5129 252.773 15.7103 252.723 14.751C249.584 18.0398 247.075 27.1623 247.295 29.9225V29.9128ZM234.758 50.2132C231.999 55.6064 229.159 60.9507 227.12 66.6474C228.7 65.5805 230.169 64.4549 231.659 63.3488C232.079 63.0356 232.319 62.6636 232.449 62.1742C233.018 60.06 233.648 57.9654 234.188 55.8511C234.658 54.011 234.888 52.1317 234.758 50.2132ZM199.997 78.3245C197.458 77.7275 195.058 77.7079 192.749 77.2185C192.539 77.1696 192.409 77.2968 192.299 77.424C190.869 79.137 189.52 80.8988 188.35 82.9347C189.919 83.0032 191.359 83.0718 192.799 83.1109C192.959 83.1109 193.139 83.013 193.279 82.9151C195.458 81.4372 197.628 79.9494 199.997 78.3245ZM255.453 36.0401C256.233 30.1575 256.932 24.3923 254.833 18.725C254.593 22.5521 254.073 26.3499 253.083 30.0302C252.394 32.6045 252.833 34.4446 255.103 35.8541C255.163 35.8933 255.223 35.9226 255.453 36.0401ZM246.435 42.2653C247.385 41.7367 247.855 40.9048 248.575 40.3566C249.404 39.7302 249.784 38.9276 249.874 37.8802C250.014 36.2946 250.334 34.7285 250.604 33.1624C250.854 31.7431 251.134 30.3239 251.434 28.7382C249.694 30.0009 248.555 31.6257 246.925 32.7219C246.815 32.7905 246.795 33.0352 246.785 33.2015C246.515 36.1673 246.355 39.1331 246.435 42.2653ZM206.525 67.0585C208.495 67.5773 210.214 67.9981 211.904 68.5071C212.504 68.6833 212.894 68.5658 213.304 68.1645C215.073 66.4223 216.873 64.6996 218.652 62.9573C219.112 62.507 219.712 62.184 220.132 61.4206C215.313 62.7615 211.064 64.9051 206.535 67.0683L206.525 67.0585ZM214.623 69.6719C212.864 71.0814 211.304 72.3245 209.744 73.5773C209.494 73.7731 209.215 73.9689 209.155 74.2919C208.785 76.3571 208.425 78.4224 208.045 80.6443C210.194 79.0782 211.994 77.424 213.713 75.6818C213.993 75.3979 214.213 75.0651 214.243 74.6834C214.383 73.0781 214.483 71.4631 214.613 69.6719H214.623ZM227.99 15.9158C222.891 17.8734 217.792 19.7234 213.084 22.4249C217.103 21.9061 221.082 21.2993 225.071 20.7022C225.33 20.663 225.53 20.5847 225.66 20.3302C226.43 18.8522 227.21 17.384 227.99 15.9158ZM236.098 38.8688C235.878 38.7318 235.718 38.8199 235.558 38.8884C232.649 40.0728 229.739 41.2571 226.83 42.4317C226.6 42.5296 226.37 42.6079 226.23 42.833C225.3 44.3697 224.381 45.8967 223.311 47.6683C228.28 45.3877 232.549 42.6275 236.098 38.8591V38.8688ZM208.255 48.8918C203.146 50.4383 198.027 51.9849 192.909 53.5216C192.929 53.6097 192.959 53.688 192.979 53.7761C196.788 53.502 200.597 53.2377 204.406 52.9539C204.816 52.9245 205.286 52.9832 205.595 52.6211C206.605 51.4759 207.565 50.2915 208.245 48.8918H208.255ZM249.564 50.3013C249.754 50.2132 249.834 50.1936 249.864 50.1545C251.884 46.572 253.543 42.8428 254.713 38.908C254.813 38.5556 254.723 38.2816 254.503 38.0466C253.773 37.3027 253.023 36.5686 252.094 35.6486C251.524 40.6992 250.784 45.4954 249.574 50.3013H249.564ZM266.24 10.4541C266.81 9.77871 267.85 9.66125 268.09 8.61393C268.999 4.65955 270.009 0.734531 271.199 -3.15133C271.329 -3.58201 271.529 -4.02247 271.419 -4.63912C268.399 0.049366 266.9 5.09022 266.24 10.4541ZM195.638 83.6688C192.209 86.0278 188.9 88.2888 185.601 90.5596C187.27 90.266 188.85 89.8059 190.419 89.3068C193.132 88.4454 194.878 86.6803 195.658 84.0114C195.658 84.0114 195.658 83.9429 195.638 83.6688ZM201.736 48.9212C201.017 48.099 200.227 47.5802 199.557 46.944C198.917 46.3371 198.507 46.5427 197.967 46.9538C196.548 48.0305 195.088 49.0778 193.689 50.1838C193.089 50.6537 192.409 51.0746 191.859 51.9555C195.188 50.6635 198.447 49.9196 201.736 48.9212ZM270.109 8.35943C268.989 13.0969 267.91 17.6679 266.77 22.4934C267 22.1704 267.1 22.0725 267.15 21.9551C268.579 18.8327 269.889 15.6613 271.159 12.4704C271.829 10.7771 271.259 9.65146 270.109 8.34965V8.35943ZM216.493 72.4713C218.822 69.4076 220.632 66.3342 221.801 62.8888C220.462 63.8186 219.292 64.9051 218.192 66.0797C217.762 66.5397 216.993 66.8627 216.953 67.4598C216.853 69.0455 216.213 70.5822 216.493 72.4713ZM236.878 51.9457C236.578 53.8642 236.198 55.7631 235.708 57.6326C235.678 57.7598 235.608 57.936 235.668 58.0339C236.518 59.6489 237.057 61.4206 238.167 63.1824C238.277 59.2182 238.007 55.5477 236.888 51.9457H236.878ZM214.703 19.2731C217.003 18.265 219.062 17.3645 221.122 16.4737C221.731 16.2095 222.691 16.0822 222.881 15.6418C223.171 14.9762 222.061 14.6923 221.791 14.0659C221.421 13.1947 220.982 13.5471 220.472 13.9484C218.472 15.4949 216.633 17.2274 214.703 19.2829V19.2731ZM272.348 8.12452C273.138 4.66933 273.438 1.44906 272.908 -1.83973C272.139 0.568134 271.489 2.99557 270.829 5.41323C270.769 5.64814 270.889 5.80475 271.009 5.98093C271.419 6.61716 271.819 7.26317 272.358 8.12452H272.348ZM225.9 82.0538C224.981 82.5432 224.211 82.9347 223.551 83.5122C223.191 83.8254 222.561 83.9429 222.481 84.4617C222.191 86.4486 221.971 88.4454 221.721 90.4422C223.381 87.7896 224.701 85.0489 225.89 82.0538H225.9ZM235.848 36.7253C233.188 36.2261 230.569 36.138 227.76 36.3337C228.8 37.1755 229.689 37.89 230.579 38.6046C230.769 38.7612 230.959 38.722 231.169 38.6339C232.729 37.9879 234.288 37.3517 235.848 36.7155V36.7253ZM247.305 51.2508C248.005 48.4612 248.734 45.6128 249.164 42.5785C248.105 43.2343 247.615 44.2327 246.695 44.7808C246.475 44.9081 246.535 45.1528 246.555 45.3485C246.805 47.3355 247.055 49.3225 247.295 51.241L247.305 51.2508ZM255.533 3.62201C252.873 3.19133 250.264 3.12282 247.525 3.33816C248.065 4.00375 248.485 4.51272 248.904 5.0217C249.084 5.23704 249.244 5.46217 249.594 5.3545C251.574 4.777 253.553 4.19951 255.523 3.6318L255.533 3.62201ZM185.081 88.3867C185.081 88.3867 185.171 88.4552 185.221 88.4943C186.85 87.3589 188.48 86.2235 190.259 84.9804C189.24 84.9021 188.43 84.8434 187.63 84.7651C187.34 84.7357 187.16 84.8434 187.02 85.0783C186.38 86.1844 185.731 87.2904 185.081 88.3965V88.3867ZM265.2 19.508C265.29 19.5178 265.37 19.5374 265.46 19.5472C266.02 17.1883 266.59 14.8293 267.15 12.4802C266.64 12.9011 265.74 12.8424 265.67 13.6646C265.51 15.6124 265.36 17.5602 265.2 19.508Z" fill="url(#paint6_linear_15_776)"/>
<path d="M175.983 20.9665C170.974 26.1444 166.655 31.4397 163.246 37.4006C163.036 37.7726 163.026 38.0369 163.286 38.4284C164.406 40.1119 164.376 41.541 163.286 42.8428C162.087 44.2816 159.867 44.9179 158.198 44.311C156.688 43.7629 155.688 42.1674 155.718 40.4056C155.758 38.3794 157.678 36.6665 159.957 36.7742C160.757 36.8133 161.047 36.5001 161.397 35.9128C164.686 30.3728 168.595 25.283 173.104 20.6435C174.044 19.6744 174.783 18.4705 176.113 17.9028C176.353 17.8049 176.333 17.5602 176.343 17.3645C176.743 10.6498 176.683 3.97438 174.283 -2.46617C174.253 -2.55426 174.163 -2.63256 174.103 -2.72065C173.754 -2.54447 173.634 -2.20189 173.444 -1.92782C169.615 3.71011 165.436 9.09354 160.927 14.2225C160.377 14.8489 160.307 15.3383 160.597 16.0626C161.407 18.0888 161.597 20.1638 161.037 22.2879C160.807 23.1394 160.437 23.9323 159.807 24.5685C159.117 25.2536 158.307 25.8116 157.258 25.5179C156.208 25.2243 155.668 24.4314 155.378 23.4331C155.058 22.2976 155.468 21.2405 155.818 19.9877C154.518 21.1329 153.649 22.0334 153.769 23.9127C154.169 29.903 152.809 35.5703 149.57 40.7286C149.05 41.5606 148.46 42.3338 147.61 42.8917C146.111 43.8705 144.651 43.5769 143.731 42.0304C142.991 40.7775 142.851 39.4072 143.081 37.9977C143.481 35.5703 144.461 33.3386 145.451 31.1069C145.651 30.6664 145.861 30.226 145.941 29.6876C144.471 30.9797 143.031 32.3108 141.522 33.5539C140.702 34.2293 140.242 34.9732 140.042 36.0401C139.472 39.0646 138.193 41.864 136.763 44.5949C135.363 47.2474 133.914 49.8706 132.324 52.4155C132.144 52.6994 131.954 52.9245 132.104 53.3552C133.064 56.1154 133.054 58.9442 132.664 61.7925C132.574 62.4189 132.694 62.7615 133.214 63.1726C135.053 64.631 134.843 67.3228 132.814 69.065C131.434 70.2494 129.555 70.5528 128.175 69.8089C126.656 68.9867 125.836 67.2934 126.136 65.5707C126.436 63.799 127.655 62.6245 129.505 62.3015C129.795 62.2525 130.155 62.3504 130.235 61.8904C130.575 59.8349 130.735 57.7892 130.285 55.6162C128.765 57.4662 127.375 59.2574 125.896 60.9507C123.596 63.5935 121.077 66.0307 118.378 68.282C118.058 68.5463 117.768 68.7714 117.898 69.3195C118.438 71.6589 117.798 73.0586 115.868 73.9982C113.769 75.0162 111.729 74.654 110.28 73.0096C108.11 70.543 108.59 67.1955 111.329 65.8252C112.939 65.0226 114.449 65.3162 115.778 66.4027C116.318 66.8334 116.598 66.7746 117.088 66.3537C123.936 60.5201 129.355 53.5999 133.544 45.7303C134.973 43.0484 136.333 40.3468 137.343 37.2832C136.153 37.8705 135.323 38.7122 134.404 39.3974C131.584 41.5018 128.735 43.5671 125.696 45.3681C125.016 45.7694 124.746 46.2588 124.656 47.0223C124.396 49.1953 123.676 51.2116 122.327 52.9832C121.587 53.9523 120.667 54.6864 119.527 55.1464C118.718 55.4694 117.938 55.489 117.248 54.8625C116.588 54.2753 116.548 53.5314 116.738 52.7483C117.008 51.6129 117.708 50.6928 118.478 49.5966C116.968 50.0468 115.808 50.8299 114.519 51.3388C112.579 52.1023 110.65 52.8951 108.71 53.6684C108.35 53.8152 108.03 53.8837 108 54.4123C107.88 56.6048 106.921 58.4939 105.661 60.246C104.461 61.9197 103.132 63.4956 101.712 65.0128C100.932 65.8448 100.002 66.481 98.9626 66.941C97.9329 67.4011 96.8831 67.5087 95.9534 66.7648C95.0436 66.0503 94.9736 65.0519 95.2336 64.0046C95.9034 61.2542 97.7829 59.3357 99.8924 57.5934C100.542 57.0649 101.212 56.5657 101.822 55.9099C100.662 56.2035 99.5125 56.5069 98.3528 56.781C97.493 56.9866 96.6332 57.2215 95.7534 57.3194C94.2838 57.4955 93.1841 57.6424 92.6542 59.5119C91.9944 61.8316 89.1751 62.7322 86.9557 61.8414C84.6163 60.9018 83.2866 58.0828 84.1764 55.7924C84.8062 54.1774 85.8359 52.8756 87.6355 52.3764C89.515 51.8576 91.6245 52.7288 92.4843 54.471C92.8342 55.1758 93.2241 55.3226 93.9539 55.2345C97.9529 54.7255 101.752 53.5118 105.561 52.2981C106.801 51.9066 108.02 51.4465 109.25 50.8103C108.25 50.732 107.25 50.6341 106.251 50.5754C105.051 50.4971 103.841 50.4383 102.692 50.0468C101.932 49.7923 101.282 49.3812 100.782 48.7744C99.9823 47.8054 100.142 46.6308 101.202 45.8575C102.612 44.82 104.231 44.497 105.941 44.7613C109 45.2409 111.819 46.3273 114.239 48.2654C114.479 48.4514 114.639 48.745 115.049 48.5492C117.478 47.3551 119.927 46.2001 122.327 44.6732C121.447 44.174 120.597 43.9586 119.767 43.7139C114.569 42.1968 109.19 41.7661 103.831 41.1495C103.102 41.0614 102.942 41.492 102.692 41.9619C101.782 43.7237 100.022 44.5949 97.9229 44.3599C96.0533 44.1446 94.4537 42.8036 93.9739 41.0222C93.504 39.2408 94.1038 37.8215 95.5435 36.6959C98.1228 34.6796 101.842 35.4332 103.272 38.3011C103.541 38.8395 103.911 38.8493 104.371 38.8884C108.59 39.1918 112.759 39.8281 116.898 40.6503C119.407 41.1495 121.867 41.8248 124.196 42.8722C124.606 43.0581 124.946 43.1462 125.376 42.8722C129.125 40.4251 132.764 37.8509 136.343 34.9047C134.174 35.3549 132.174 35.7954 130.165 36.1771C128.495 36.5001 126.796 36.6861 125.096 36.5295C124.166 36.4512 123.276 36.2554 122.487 35.7269C120.957 34.6991 120.797 33.2309 122.137 31.9585C123.376 30.7839 124.936 30.2162 126.596 29.8932C129.175 29.3842 131.754 29.6387 134.314 30.0792C136.233 30.412 138.153 30.7643 140.062 31.1558C140.492 31.2439 140.792 31.1852 141.112 30.9014C146.59 26.0758 151.719 20.9077 156.628 15.5928C156.568 15.3481 156.438 15.3481 156.288 15.3481C150.549 15.5928 144.851 16.1801 139.152 16.8457C136.513 17.1491 133.884 17.4623 131.244 17.7853C130.495 17.8734 130.095 18.1084 129.815 18.8522C129.035 20.9469 127.485 22.5619 126.026 24.2063C125.616 24.6664 125.496 25.0285 125.726 25.6647C126.326 27.2798 125.606 28.8948 123.956 29.9323C122.427 30.9014 120.237 30.735 118.788 29.5408C117.298 28.3173 116.838 26.1248 117.738 24.5391C118.648 22.9437 120.957 22.141 122.956 22.8849C123.736 23.1688 124.076 22.9534 124.516 22.4151C125.526 21.172 126.636 20.0072 127.395 18.4314C123.876 19.0089 120.557 19.7919 117.288 20.8099C115.768 21.2797 114.289 21.8572 112.789 22.3955C112.459 22.513 112.189 22.6207 112.099 23.0709C111.579 25.7137 109.74 27.3483 107.51 27.2113C105.481 27.084 103.551 24.9502 103.331 22.5815C103.132 20.4575 104.221 18.911 106.501 18.1084C108.54 17.384 110.46 17.9615 111.599 19.7038C111.849 20.0855 112.039 20.2519 112.519 20.0562C119.817 17.1981 127.475 15.8571 135.233 14.9272C135.513 14.8979 135.783 14.8391 136.053 14.7902C136.113 14.3791 135.813 14.2029 135.613 13.9876C133.384 11.5601 130.625 9.91574 127.525 8.78032C127.125 8.6335 126.875 8.69223 126.606 8.97609C126.056 9.55358 125.336 9.85701 124.566 10.0234C122.497 10.4834 120.677 9.7004 119.807 7.99728C118.988 6.39203 119.497 4.27781 121.017 2.99557C122.707 1.55673 125.306 1.26309 127.295 2.28104C128.885 3.09346 129.455 4.31696 128.895 6.00051C128.705 6.57801 128.845 6.77377 129.355 7.00868C133.014 8.64329 136.313 10.7477 138.762 13.9386C138.992 14.2421 139.242 14.5063 139.722 14.4476C141.372 14.2519 143.021 14.0952 144.891 13.9093C143.271 12.5096 141.912 11.1295 140.832 9.51443C139.652 7.75257 138.662 5.92221 138.632 3.74926C138.632 3.26964 138.633 2.77045 138.692 2.30062C139.102 -0.498766 141.382 -1.54609 143.831 -0.0387249C145.761 1.14563 147.16 2.84875 148.42 4.66933C150.02 6.98911 150.859 9.59273 151.169 12.353C151.249 13.0871 151.469 13.3514 152.279 13.2828C154.398 13.1067 156.518 13.0088 158.637 12.9207C159.027 12.9011 159.207 12.7151 159.417 12.4802C163.826 7.43936 167.925 2.18317 171.574 -3.40582C171.624 -3.48413 171.634 -3.582 171.674 -3.70925C170.234 -3.10239 168.855 -2.51511 167.465 -1.93761C167.205 -1.82994 166.925 -1.75164 166.655 -1.69291C165.666 -1.45799 164.666 -1.31117 163.946 -2.25083C163.346 -3.03387 163.446 -4.24759 164.306 -5.23619C165.906 -7.05677 168.025 -7.96706 170.424 -8.27049C171.624 -8.4271 172.834 -8.36837 174.024 -8.14325C174.483 -8.05515 174.723 -8.11388 174.963 -8.51519C175.933 -10.1694 176.933 -11.804 177.992 -13.556C177.493 -13.5756 177.253 -13.3113 177.003 -13.1254C174.014 -10.9524 170.644 -9.64082 167.035 -8.89693C166.026 -8.68159 164.996 -8.61307 163.976 -8.80883C161.667 -9.2493 160.877 -11.2363 162.366 -13.0177C164.486 -15.543 167.295 -17.0406 170.454 -17.9509C173.244 -18.7437 176.103 -18.9199 178.982 -18.7144C179.532 -18.6752 180.292 -18.1858 180.562 -18.3914C181.072 -18.7927 181.302 -19.5366 181.642 -20.1434C181.792 -20.4175 181.902 -20.7013 182.041 -21.0048C181.612 -21.2397 181.182 -21.1614 180.782 -21.1712C173.594 -21.2886 167.095 -19.2331 161.247 -15.1613C160.927 -14.9362 160.617 -14.7013 160.287 -14.5153C159.907 -14.2999 159.797 -14.0454 159.837 -13.5854C160.067 -11.1971 158.827 -9.52336 156.388 -8.78926C154.408 -8.20197 152.369 -9.04375 151.229 -10.9328C150 -12.9785 150.12 -15.2004 151.539 -16.5023C153.089 -17.9313 155.728 -18.1173 157.638 -16.7567C158.447 -16.1792 158.947 -16.3065 159.637 -16.8155C165.296 -21.0048 171.724 -23.1092 178.782 -23.4811C180.062 -23.5497 181.342 -23.6182 182.591 -23.3343C183.151 -23.2071 183.331 -23.4322 183.541 -23.8531C184.351 -25.5171 185.171 -27.1712 185.751 -28.9233C186.01 -29.7259 186.5 -30.1272 187.33 -29.9021C188.23 -29.6574 188.24 -28.9723 188 -28.2186C187.45 -26.5252 186.71 -24.9102 185.91 -23.3245C185.681 -22.8645 185.681 -22.5806 186.05 -22.15C189.38 -18.2054 191.669 -13.8203 191.819 -8.58371C191.839 -7.95727 192.039 -7.61469 192.559 -7.25253C195.128 -5.50047 195.358 -2.3585 193.129 -0.391094C193.019 -0.303003 192.919 -0.205122 192.799 -0.126816C190.969 1.15542 187.63 0.225554 185.98 -2.01591C184.721 -3.72883 185.161 -6.22478 186.95 -7.46787C187.45 -7.82024 188 -8.09431 188.62 -8.08452C189.34 -8.07473 189.48 -8.35858 189.45 -9.02417C189.22 -13.3701 187.18 -16.9525 184.581 -20.3098C184.171 -20.1238 184.111 -19.791 183.971 -19.5268C181.552 -14.9655 179.042 -10.4532 176.233 -6.11712C175.833 -5.50047 175.793 -5.04043 176.083 -4.3259C177.403 -1.13499 178.282 2.18317 178.622 5.62857C178.662 6.02009 178.642 6.40182 179.092 6.70525C182.691 9.06418 185.151 12.3921 187.22 16.0431C189.17 19.4885 190.199 23.2275 190.939 27.0644C191.029 27.5636 191.159 27.916 191.729 28.1411C193.908 29.022 195.038 31.1852 194.538 33.3777C194.098 35.3354 192.249 36.7546 190.119 36.7644C187.94 36.7742 186.01 35.1983 185.531 32.996C185.091 30.9894 185.741 28.7578 188.02 28.1215C188.48 27.9943 188.72 27.8181 188.61 27.2406C187.4 20.8099 184.841 15.0349 180.032 10.366C179.712 10.0528 179.422 9.68082 178.932 9.51443C178.902 11.2959 178.882 13.0577 178.842 14.8196C178.722 20.5358 177.923 26.1639 176.393 31.6844C176.233 32.2717 176.453 32.6338 176.723 33.1037C179.572 38.1152 180.952 43.3811 179.422 49.0974C179.082 50.36 178.442 51.4759 177.453 52.3764C176.363 53.365 175.293 53.4041 174.103 52.5232C172.794 51.5542 172.294 50.1643 172.074 48.6471C171.824 46.9244 171.994 45.2017 172.004 43.4399C171.284 44.7221 170.564 46.0141 169.855 47.2964C168.785 49.2148 167.585 51.0648 166.195 52.7777C165.846 53.2084 165.856 53.4922 166.225 53.9229C168.305 56.3405 168.095 59.5315 165.786 61.3227C163.366 63.202 159.817 62.7126 157.968 60.246C156.128 57.7892 156.728 54.471 159.337 52.7385C160.387 52.0436 161.577 51.7891 162.786 52.0729C163.526 52.2491 163.866 51.9751 164.256 51.4661C169.055 45.2115 172.204 38.2033 174.213 30.6664C175.043 27.5734 175.643 24.4412 176.033 20.9958L175.983 20.9665ZM152.019 24.7251C151.929 24.6859 151.849 24.6468 151.759 24.5978C151.669 24.6957 151.579 24.7838 151.499 24.8817C148.43 28.6599 146.401 32.9373 145.111 37.567C144.871 38.448 144.901 39.3485 145.111 40.249C145.231 40.7579 145.311 41.355 145.931 41.4627C146.471 41.5606 146.84 41.1495 147.14 40.7482C150.779 35.9716 151.849 30.4707 152.029 24.7153L152.019 24.7251ZM145.591 11.7265C145.271 11.2273 144.931 10.7379 144.631 10.229C144.121 9.35782 143.611 8.47689 143.401 7.47851C143.301 7.00868 143.321 6.52907 143.881 6.36267C144.471 6.19627 144.691 6.63673 144.851 7.08699C145.641 9.30888 146.94 11.2469 148.34 13.136C148.53 13.3905 148.69 13.5667 149.02 13.4492C149.34 13.3318 149.25 13.0577 149.23 12.8326C148.81 8.00706 146.52 4.22887 142.542 1.40991C141.712 0.822624 140.842 1.23372 140.642 2.21253C140.472 3.03473 140.452 3.8765 140.662 4.68891C141.422 7.61554 143.241 9.85701 145.591 11.7265ZM175.053 37.753C174.173 40.0728 173.584 46.3567 174.014 48.5003C174.083 48.8429 174.183 49.1757 174.293 49.4987C174.523 50.2034 174.833 51.0158 175.623 51.0844C176.413 51.1529 176.703 50.2915 177.023 49.7042C178.582 46.8559 178.352 40.5524 176.583 37.4985C176.863 39.1038 177.213 40.6601 177.233 42.2555C177.243 43.019 177.233 43.7825 176.933 44.5068C176.753 44.9472 176.483 45.3779 175.913 45.1626C175.413 44.9668 175.393 44.5655 175.493 44.0369C175.883 41.9619 175.553 39.926 175.043 37.7432L175.053 37.753ZM175.463 -16.698C175.453 -16.7665 175.443 -16.835 175.433 -16.9134C174.593 -16.8155 173.754 -16.7372 172.924 -16.6001C169.625 -16.052 166.715 -14.7012 164.286 -12.4304C163.906 -12.078 163.426 -11.6082 163.656 -11.0895C163.886 -10.5707 164.556 -10.6196 165.086 -10.6196C166.235 -10.6196 167.325 -10.9622 168.415 -11.2363C171.414 -11.9802 174.143 -13.2722 176.553 -15.2396C176.263 -15.4843 176.073 -15.3179 175.883 -15.269C174.083 -14.76 172.284 -14.2412 170.474 -13.7518C169.945 -13.605 169.335 -13.6246 169.185 -14.2902C169.035 -14.9362 169.565 -15.0732 170.075 -15.2102C171.874 -15.6898 173.674 -16.2086 175.473 -16.7078L175.463 -16.698ZM136.693 32.5849C134.504 32.0172 132.334 31.5767 130.095 31.5082C128.205 31.4495 126.346 31.6648 124.636 32.5164C124.056 32.8002 123.166 33.0547 123.296 33.7986C123.426 34.5425 124.356 34.4936 124.996 34.5425C129.065 34.8753 132.884 33.7497 136.703 32.5849H136.693ZM159.637 58.6407C160.497 60.0894 162.426 60.5298 163.996 59.6391C165.216 58.9442 165.626 57.2606 164.886 55.998C164.006 54.5102 161.937 53.8348 160.627 54.6081C159.297 55.3911 158.837 57.2802 159.647 58.631L159.637 58.6407ZM105.721 55.6945C103.032 57.5641 100.452 59.1889 98.5427 61.6065C97.9329 62.37 97.443 63.2216 97.1531 64.1514C97.0431 64.5136 96.8831 64.9247 97.263 65.2085C97.6229 65.4728 98.0228 65.3064 98.3528 65.1106C98.8326 64.8268 99.3525 64.5625 99.7524 64.1808C101.752 62.2623 103.501 60.1383 104.941 57.7892C105.281 57.2313 105.571 56.6342 105.731 55.6847L105.721 55.6945ZM87.7655 54.843C86.6957 55.44 86.0759 56.781 86.3258 57.936C86.5458 58.9637 87.5355 59.8055 88.5552 59.8153C89.605 59.8251 90.5247 59.2085 90.7247 58.2003C90.9346 57.153 89.8949 56.2818 90.1548 55.1856C90.1648 55.1366 90.0049 55.0583 89.9249 54.9898C89.2451 54.4417 88.5253 54.4123 87.7655 54.843ZM153.179 -12.1955C153.939 -10.9133 155.108 -10.6 156.418 -11.3146C157.678 -12.0095 157.748 -12.9296 156.658 -14.574C156.168 -15.3277 154.488 -15.6115 153.549 -15.1026C152.569 -14.574 152.429 -13.4582 153.189 -12.1857L153.179 -12.1955ZM97.233 38.3403C95.9634 39.0744 95.8334 40.6111 96.9431 41.5116C97.523 41.9814 98.1928 42.0793 98.9226 42.0891C100.022 42.0891 100.072 41.1495 100.512 40.5426C101.472 39.2408 100.972 38.1347 99.3425 37.9488C98.5827 37.8607 97.8729 38.0369 97.233 38.3403ZM188.31 30.4315C188.25 30.4805 188.14 30.5686 188.05 30.6762C187.55 31.2635 187.62 32.6338 188.19 33.4267C188.79 34.2587 189.839 34.5719 190.939 34.2293C191.909 33.9259 192.209 33.1722 192.199 32.2815C192.189 30.4805 190.009 29.4234 188.31 30.4315ZM106.111 23.6484C106.861 25.0089 107.87 25.2439 109.02 24.3727C109.75 23.8148 109.94 21.2307 109.31 20.5652C109.02 20.2617 108.68 20.1247 108.27 20.1443C107.3 20.1638 106.451 20.4673 105.891 21.2797C105.291 22.1508 105.811 22.9339 106.111 23.6582V23.6484ZM115.158 69.4174C114.379 67.8905 113.419 67.3913 112.309 67.9394C111.289 68.4386 110.95 69.5936 111.509 70.6899C112.269 72.1972 113.419 72.6279 114.769 71.9427C115.828 71.4044 115.908 70.8856 115.158 69.4174ZM173.174 -6.67504C170.354 -7.0274 167.815 -6.51842 165.696 -4.60975C165.316 -4.26717 164.806 -3.82671 165.146 -3.29815C165.446 -2.83811 166.056 -3.03387 166.525 -3.16112C169.005 -3.84628 171.144 -5.15788 173.174 -6.67504ZM159.267 16.7087C158.717 17.6777 158.268 18.4411 157.838 19.2144C157.308 20.1638 156.838 21.1427 156.798 22.2389C156.778 22.9437 156.848 23.7854 157.598 24.0106C158.347 24.2455 158.767 23.4918 159.097 22.9437C160.267 20.986 159.897 18.9697 159.267 16.7087ZM188.34 -5.64729C187.46 -5.13831 187.34 -3.82671 188.15 -3.04366C188.68 -2.53468 189.33 -2.16273 190.049 -1.95719C191.109 -1.65376 191.839 -2.06486 192.149 -3.11218C192.389 -3.93438 192.119 -4.60975 191.489 -5.1481C191.109 -5.4711 188.67 -5.83326 188.34 -5.6375V-5.64729ZM111.299 48.7646C109.58 47.8151 107.84 46.9146 105.851 46.6406C105.041 46.5329 104.221 46.5623 103.441 46.8363C103.022 46.9832 102.352 47.13 102.342 47.5215C102.332 48.05 103.012 48.1479 103.471 48.2654C106.031 48.931 108.64 48.9603 111.289 48.7646H111.299ZM123.156 4.36591C121.887 5.06086 121.457 6.14733 121.937 7.06741C122.307 7.78194 123.396 8.04622 124.376 7.66448C124.866 7.46872 125.166 7.09678 125.396 6.65631C125.686 6.09839 125.856 5.49153 126.306 5.0217C126.696 4.6106 126.386 4.42463 126.036 4.26802C124.986 3.80798 123.966 3.94502 123.156 4.36591ZM122.907 47.6683C121.637 48.6765 120.427 49.7238 119.387 50.9473C118.938 51.4759 118.508 52.0338 118.298 52.7092C118.188 53.0713 117.978 53.4922 118.298 53.7859C118.648 54.0991 119.027 53.7956 119.357 53.6097C121.617 52.2491 122.377 50.037 122.897 47.6781L122.907 47.6683ZM120.307 25.1753C119.597 25.5864 119.387 26.5163 119.837 27.2602C120.387 28.1509 121.747 28.5424 122.617 28.053C123.396 27.6126 123.726 26.7414 123.346 26.1346C122.747 25.1851 121.177 24.6859 120.307 25.1851V25.1753ZM130.874 67.587C131.814 67.0585 132.344 65.9329 131.974 65.2379C131.664 64.6506 129.965 64.3472 129.245 64.7387C128.485 65.1596 128.205 66.3342 128.665 67.1466C129.115 67.9198 129.975 68.096 130.874 67.587ZM158.947 39.3093C158.068 39.7889 157.838 40.6405 158.337 41.5214C158.767 42.2653 159.817 42.4513 160.777 41.9619C161.647 41.5116 161.947 40.709 161.527 39.9847C161.007 39.1135 159.857 38.8101 158.947 39.3191V39.3093Z" fill="url(#paint7_linear_15_776)"/>
<path d="M336.612 64.357C334.263 61.1073 331.503 58.2982 327.794 56.5069C327.684 56.458 327.584 56.3993 327.484 56.3405C326.565 56.135 325.625 55.9588 324.695 55.8413C324.715 56.1252 324.735 56.4091 324.755 56.6929C324.935 59.3161 325.125 61.9393 325.295 64.5625C325.345 65.3064 325.185 65.7469 324.485 66.158C322.506 67.313 321.156 69.1238 319.756 70.8562C319.367 71.3456 319.017 71.5316 318.337 71.424C316.607 71.1499 315.118 72.1287 314.358 73.8905C314.288 74.6149 314.208 75.3294 314.088 76.0439C314.088 76.0439 314.088 76.0537 314.088 76.0635C314.248 77.15 314.808 78.1875 315.697 78.9118C317.227 80.1353 319.537 80.1647 320.976 78.9901C322.426 77.8058 322.806 75.4077 321.676 73.5969C321.236 72.8922 321.396 72.5202 321.856 71.9917C322.926 70.7779 323.905 69.4761 325.355 68.4288C325.435 71.9623 325.275 75.349 324.855 78.7161C324.665 80.2822 324.355 81.8385 324.095 83.3948C324.035 83.7373 323.985 84.0212 323.546 84.1876C320.956 85.186 319.646 87.2904 320.216 89.434C320.726 91.3916 323.256 92.8598 325.705 92.6249C327.904 92.4194 329.264 91.0588 329.654 88.6901C330.004 86.5661 329.054 84.814 327.065 84.0212C326.625 83.845 326.425 83.6982 326.525 83.199C328.054 75.5545 327.964 67.8513 327.435 60.1285C327.415 59.8545 327.424 59.5706 327.424 59.2965C327.824 59.1595 328.064 59.414 328.324 59.5706C331.214 61.2835 333.403 63.6522 335.143 66.4614C335.372 66.8236 335.362 67.0781 335.113 67.4011C334.633 68.0471 334.463 68.8007 334.433 69.5838C334.353 71.6784 335.492 73.3131 337.392 73.8318C339.172 74.3212 341.221 73.4305 342.241 71.7176C343.38 69.7991 343.18 67.2151 341.771 65.4728C340.641 64.0829 339.291 63.7599 337.692 64.6212C337.142 64.9149 336.912 64.817 336.582 64.3668L336.612 64.357ZM318.327 73.7829C319.407 74.1842 320.206 75.623 319.866 76.5627C319.586 77.3359 318.677 77.7177 317.847 77.4142C316.837 77.0423 316.187 75.7992 316.517 74.8596C316.817 74.0178 317.637 73.5382 318.327 73.7927V73.7829ZM326.635 86.3997C326.995 86.6248 327.195 86.9283 327.265 87.3296C327.424 88.279 327.285 89.1599 326.565 89.8549C325.795 90.5988 324.895 90.2464 324.115 90.0898C322.586 89.6102 322.166 88.6705 322.836 87.3981C323.266 86.5759 325.845 85.9103 326.645 86.3997H326.635ZM340.011 67.0291C340.681 67.9688 340.731 68.9769 340.461 69.8481C340.001 71.2086 338.982 71.835 337.942 71.5414C337.142 71.3163 336.672 70.3081 336.872 69.2706C336.972 68.7518 337.302 68.3994 337.702 68.0862C338.212 67.7045 338.802 67.4206 339.192 66.8921C339.541 66.432 339.781 66.7061 340.001 67.0095L340.011 67.0291Z" fill="url(#paint8_linear_15_776)"/>
<path d="M55.6637 21.6908C53.8341 22.8947 52.1346 24.0106 50.425 25.1362C50.235 25.2634 50.1451 25.3809 50.1951 25.6452C50.8349 28.7578 50.2151 31.7725 49.4552 34.7774C49.0054 36.5589 48.2356 38.2228 47.3358 39.8379C47.0958 40.2685 46.8359 40.6992 46.416 41.0124C46.0261 41.3061 45.6262 41.3648 45.2563 41.0222C44.9064 40.6992 44.8464 40.2881 45.1363 39.8868C47.4158 36.7057 48.2755 33.0743 48.6155 29.2765C48.6854 28.5033 48.6454 27.7105 48.6454 26.9274C48.6454 26.4772 48.4855 26.3695 48.0756 26.6435C46.7659 27.4951 45.4463 28.3369 44.1166 29.1689C43.8867 29.3157 43.8267 29.4625 43.8267 29.7366C43.8967 33.505 42.747 36.921 40.6375 40.0532C40.3476 40.4839 40.0376 40.9146 39.7077 41.3257C39.3378 41.7759 38.8779 42.1576 38.2881 41.6976C37.7082 41.2571 37.9082 40.7188 38.2881 40.2588C40.3476 37.8117 41.4173 34.9438 41.9671 31.8704C42.0471 31.4397 42.1371 31.0188 42.0471 30.5098C40.5575 31.4103 39.1379 32.2717 37.6982 33.1135C37.4483 33.2603 37.4383 33.4756 37.3883 33.7105C36.8684 36.089 35.6188 38.0467 33.7992 39.6813C33.2494 40.1805 32.7095 40.2196 32.3596 39.7498C31.9797 39.231 32.1596 38.7808 32.6095 38.3794C33.7192 37.3908 34.619 36.2456 35.1789 34.8851C35.1289 34.8264 35.0789 34.7676 35.0289 34.7089C33.8692 35.4724 32.7095 36.2163 31.5598 36.9993C30.65 37.616 30.1202 37.6845 29.7403 37.1853C29.3704 36.6861 29.6003 36.1967 30.5301 35.5801C31.9397 34.6502 33.3493 33.7203 34.9289 32.6828C33.1394 32.3304 31.5098 32.2325 29.8802 32.7709C29.6803 32.8394 29.4803 32.9373 29.2704 32.9569C28.8005 32.996 28.4106 32.8492 28.2506 32.3794C28.0907 31.8997 28.3406 31.5669 28.7505 31.3516C28.9804 31.2244 29.2404 31.1363 29.4903 31.058C31.8797 30.3826 34.2291 30.5588 36.5485 31.381C36.8285 31.4789 37.0284 31.518 37.2783 31.3418C38.618 30.4511 39.9777 29.5604 41.3673 28.6501C41.2573 28.4641 40.9274 28.4152 40.6575 28.3075C37.2483 26.9372 33.7192 26.7806 30.1202 27.27C29.7503 27.3189 29.3803 27.3874 29.0104 27.407C28.5306 27.4266 28.2606 27.1427 28.1707 26.7219C28.0807 26.2814 28.2606 25.9584 28.6905 25.7822C28.8405 25.7235 29.0004 25.6941 29.1504 25.6745C33.8992 24.8915 38.508 25.1949 42.8469 27.4168C43.1868 27.593 43.4168 27.5636 43.7167 27.3679C45.1163 26.4478 46.516 25.5473 47.9256 24.6566C48.3455 24.3923 48.2955 24.2553 47.8856 24.0399C43.7167 21.8572 39.3578 20.4673 34.549 20.9567C33.7892 21.035 33.0394 21.2503 32.2796 21.3874C31.9397 21.4461 31.5898 21.4852 31.2499 21.4852C30.74 21.4852 30.3701 21.2601 30.3101 20.7218C30.2501 20.1638 30.6 19.8996 31.0899 19.8115C32.4496 19.5766 33.7992 19.2731 35.1889 19.185C39.4078 18.9012 43.3368 19.9094 47.0858 21.7299C47.9456 22.141 48.7954 22.5717 49.6352 23.0318C49.9551 23.2079 50.1851 23.2177 50.505 23.022C52.0746 22.0334 53.6542 21.0546 55.2538 20.1051C55.7836 19.7919 55.7136 19.6255 55.2538 19.3221C50.1951 15.9158 44.6465 14.2812 38.488 14.8489C37.5583 14.937 36.6385 15.0545 35.6987 14.9272C35.0889 14.8391 34.679 14.5553 34.769 13.8995C34.849 13.2828 35.2988 13.1262 35.8887 13.1752C38.0981 13.3514 40.2976 12.8522 42.517 13.0283C47.9356 13.4394 52.7744 15.2992 57.0633 18.539C57.3332 18.7446 57.5232 18.7935 57.8331 18.6173C59.3527 17.756 60.8923 16.9142 62.4319 16.0724C62.7918 15.8767 62.9018 15.7201 62.5519 15.3971C57.1233 10.3171 50.8149 7.733 43.1968 8.90757C42.3071 9.0446 41.4073 9.17185 40.5075 9.26973C40.0076 9.32846 39.6777 9.0446 39.6077 8.56499C39.5378 8.07559 39.7277 7.69385 40.2876 7.58618C45.9361 6.49971 51.4747 6.56822 56.7534 9.18164C59.5127 10.552 61.9121 12.3921 64.1015 14.5161C64.3614 14.7706 64.5414 14.8881 64.9113 14.6727C66.9308 13.508 68.9603 12.3432 71.0098 11.2273C71.6396 10.8848 71.5396 10.5911 71.1497 10.1898C70.07 9.06418 68.9503 7.98749 67.6606 7.09678C63.3417 4.12121 58.7429 1.78186 53.4042 1.09669C51.9646 0.91072 50.525 1.0086 49.0953 0.940084C48.6455 0.920508 48.1856 0.891143 47.7457 0.80305C47.2558 0.714957 47.0259 0.372376 47.0758 -0.10724C47.1358 -0.626006 47.4657 -0.860921 47.9956 -0.890285C54.9838 -1.15456 61.3022 0.793263 67.0808 4.58125C69.2102 5.98094 71.2197 7.52745 72.8393 9.49485C73.1492 9.8668 73.3592 9.85701 73.7591 9.63189C75.4086 8.68245 77.0782 7.74279 78.7678 6.84229C79.3376 6.53886 79.2277 6.31373 78.8678 5.94179C77.1882 4.19951 75.1687 2.88791 73.2192 1.47843C68.0005 -2.29977 62.082 -3.87565 55.6837 -3.97353C55.0538 -3.98332 54.524 -4.09099 54.524 -4.82509C54.524 -5.54941 55.0338 -5.70602 55.6737 -5.69623C62.6519 -5.6375 69.0203 -3.78755 74.6488 0.352799C76.7183 1.86995 78.8678 3.27943 80.5573 5.22726C80.8273 5.54048 81.0572 5.56005 81.4371 5.3545C83.0067 4.51273 84.5863 3.71011 86.1759 2.8977C86.9957 2.47681 87.0057 2.42787 86.3658 1.76228C84.1764 -0.537913 81.6271 -2.41723 79.0877 -4.33569C74.7988 -7.58533 70 -9.41569 64.5514 -9.55273C64.3415 -9.55273 64.1215 -9.58209 63.9116 -9.61145C63.3917 -9.69955 63.1018 -10.0128 63.1418 -10.5315C63.1817 -11.0503 63.4917 -11.3342 64.0415 -11.3244C64.3914 -11.3244 64.7314 -11.2754 65.0813 -11.2656C71.4397 -11.0601 76.8083 -8.48583 81.6371 -4.61954C83.9465 -2.7696 86.2959 -0.968589 88.2754 1.24351C88.5053 1.498 88.6753 1.64482 89.0652 1.43927C90.3548 0.754109 91.6645 0.0983095 92.9842 -0.518338C93.474 -0.743463 93.3741 -0.949014 93.1341 -1.27202C89.885 -5.65707 85.816 -9.19057 81.2172 -12.1466C79.2077 -13.4386 76.9383 -14.1335 74.5189 -14.2999C74.199 -14.3195 73.879 -14.3587 73.5691 -14.4076C72.9993 -14.4957 72.7093 -14.8383 72.7893 -15.3962C72.8593 -15.915 73.2092 -16.1597 73.7491 -16.1303C74.7888 -16.0716 75.8185 -15.9345 76.8383 -15.729C80.1874 -15.0243 82.9867 -13.3016 85.606 -11.2363C89.0252 -8.54456 92.2044 -5.61792 94.7237 -2.08443C95.0636 -1.6146 95.3336 -1.67333 95.7635 -1.87888C97.613 -2.79896 99.4025 -3.83649 101.332 -4.59996C101.652 -4.72721 101.722 -4.89361 101.572 -5.19704C99.3226 -9.59188 96.3333 -13.2428 91.3646 -14.9166C90.8847 -15.0732 90.3848 -15.1907 89.9549 -15.4549C89.4751 -15.7486 89.3251 -16.1597 89.565 -16.6589C89.805 -17.1581 90.2049 -17.1776 90.7147 -17.0308C96.5933 -15.3277 100.422 -11.3929 103.042 -6.16605C103.322 -5.60813 103.531 -5.40259 104.221 -5.64729C106.571 -6.49885 108.99 -7.12529 111.409 -7.75172C112.029 -7.90833 112.659 -8.06494 112.929 -7.26232C113.129 -6.66525 112.799 -6.30309 111.829 -6.0486C109.41 -5.41237 106.991 -4.80551 104.621 -4.00289C104.081 -3.81692 103.991 -3.65052 104.241 -3.12197C105.921 0.401738 107.111 4.06248 107.41 7.96792C107.45 8.46711 107.51 8.95651 107.351 9.44591C107.201 9.89616 106.871 10.1409 106.391 10.1017C105.871 10.0626 105.631 9.71019 105.641 9.25015C105.701 5.23704 104.401 1.55673 102.822 -2.05507C102.382 -3.07303 102.362 -3.0926 101.372 -2.64235C99.8524 -1.9474 98.3628 -1.19372 96.8432 -0.498763C96.3833 -0.283425 96.2933 -0.0876627 96.5033 0.382165C98.5327 4.91404 99.8824 9.66125 101.032 14.4574C101.582 16.738 101.582 19.0676 101.362 21.3874C101.292 22.1117 101.172 22.836 100.712 23.4624C100.392 23.8931 99.9624 23.9812 99.5125 23.7659C99.0526 23.5505 98.9626 23.1492 99.1526 22.699C100.012 20.6337 99.8624 18.4607 99.5325 16.3661C98.6927 11.0903 96.9432 6.04945 94.9437 1.08691C94.7637 0.626866 94.5438 0.636653 94.1639 0.832416C92.4843 1.69376 90.8047 2.53554 89.1151 3.37731C88.7852 3.54371 88.8152 3.7199 88.9252 4.00375C91.0147 9.30888 92.2543 14.8294 93.2241 20.4183C93.774 23.5603 93.784 26.7121 92.7842 29.7953C92.7042 30.04 92.6243 30.3043 92.4743 30.5098C92.2643 30.7937 91.9544 30.9601 91.5645 30.8426C91.1546 30.7154 90.9547 30.4315 90.9447 30.0302C90.9447 29.854 90.9447 29.6583 91.0147 29.4919C92.1544 26.3499 91.8245 23.1688 91.3546 19.9681C90.5848 14.8391 89.1152 9.88638 87.4656 4.97277C87.3056 4.49315 87.1057 4.36591 86.6258 4.63019C84.8762 5.57963 83.1067 6.49971 81.3571 7.42957C81.1372 7.54703 80.8573 7.61555 81.0572 8.00707C82.7468 11.2665 83.3866 14.8098 83.8965 18.3824C84.2064 20.526 84.5163 22.6794 84.6263 24.8328C84.7963 28.0922 84.3564 31.2929 83.3666 34.4153C83.2566 34.7579 83.0867 35.0907 82.8967 35.4039C82.6468 35.8248 82.2569 36.0793 81.757 35.8345C81.2671 35.5898 81.1072 35.1788 81.3371 34.6502C82.1369 32.8296 82.5468 30.9111 82.6668 28.9535C83.0567 22.5619 82.1369 16.3171 80.1474 10.229C79.5476 8.39859 79.4776 8.42795 77.778 9.39697C76.2784 10.2485 74.7788 11.1001 73.2592 11.9223C72.8693 12.1278 72.8493 12.3236 72.9493 12.7151C74.9088 20.3792 75.5786 28.0432 72.7293 35.6779C72.5194 36.2456 72.3294 36.8134 72.0995 37.3713C71.8695 37.9096 71.4596 38.262 70.8398 37.9977C70.21 37.7334 70.25 37.1951 70.4499 36.6567C70.6599 36.089 70.8998 35.5409 71.0997 34.9732C73.6891 27.9062 73.0992 20.8001 71.4097 13.6744C71.2897 13.1458 71.0597 13.136 70.6399 13.3807C68.6404 14.5357 66.6309 15.6711 64.6214 16.8065C64.3415 16.9632 64.2615 17.1198 64.3515 17.433C65.3712 21.221 65.2112 25.097 65.1013 28.9535C65.0113 32.3011 64.2015 35.5213 62.7919 38.5752C62.5719 39.0548 62.342 39.5247 61.9621 39.8966C61.6321 40.2098 61.2722 40.2881 60.8823 40.0532C60.4824 39.8085 60.3825 39.4366 60.5724 39.0352C60.8124 38.5165 61.1023 38.0173 61.3422 37.4887C62.222 35.5996 62.8018 33.6029 63.0718 31.5572C63.6316 27.2602 63.5816 22.9632 62.8618 18.6859C62.7519 18.0301 62.5919 17.9126 61.9821 18.2748C60.5924 19.1067 59.1728 19.88 57.7531 20.6533C57.4132 20.8392 57.3032 21.0154 57.3732 21.4461C58.333 27.4168 58.453 33.3092 55.4237 38.8591C55.2438 39.1821 55.1138 39.5246 54.9438 39.8477C54.6839 40.3371 54.344 40.7775 53.6942 40.5035C52.9943 40.2098 53.0943 39.6519 53.3343 39.1135C53.5742 38.5654 53.8541 38.0271 54.1241 37.4887C55.7936 34.1216 56.4535 30.5686 56.1135 26.8393C55.9836 25.3809 56.0935 23.9127 55.8136 22.4738C55.7836 22.327 55.7336 22.1802 55.6037 21.7299L55.6637 21.6908Z" fill="url(#paint9_linear_15_776)"/>
<path d="M293.953 53.1888C293.343 54.5885 293.013 56.0175 292.563 57.4172C290.884 62.6245 288.774 67.6458 286.325 72.5398C285.995 73.2054 285.975 73.8025 286.125 74.5268C287.255 79.8319 286.535 85.0196 284.425 89.9234C280.376 99.3689 273.048 104.997 262.761 106.906C260.571 107.317 258.322 107.356 256.143 107.865C254.773 108.178 254.193 107.522 254.533 106.162C254.703 105.457 254.983 104.772 255.263 104.106C257.292 99.2612 259.462 94.4749 262.311 89.8255C260.292 90.2073 258.442 90.5792 256.563 90.7848C253.363 91.1469 250.144 91.4014 246.975 92.0278C245.805 92.253 245.115 91.4112 245.605 90.2954C246.145 89.0523 246.835 87.8679 247.495 86.6836C249.964 82.2691 253.093 78.3343 256.692 74.7519C256.862 74.5855 257.072 74.4387 257.372 74.194C256.063 73.9493 255.883 73.176 256.033 72.2462C256.253 70.866 256.762 69.574 257.342 68.3016C260.721 60.8333 265.34 54.2557 271.829 49.0191C271.909 48.9506 271.979 48.8722 272.139 48.6961C271.459 48.8135 271.079 49.205 270.619 49.4693C269.769 49.9489 269.199 49.6944 269.019 48.7548C268.989 48.6178 268.959 48.4709 268.979 48.3437C269.479 44.9374 269.089 41.4431 269.839 38.076C271.729 29.5898 275.688 22.2487 282.786 16.787C286.305 14.0757 290.344 12.3334 294.693 11.5406C296.412 11.2273 297.552 10.4639 298.742 9.44591C304 4.93361 308.779 -0.0583019 313.698 -4.91318C316.837 -8.016 319.197 -11.6572 322.046 -14.9557C322.476 -15.4549 322.836 -16.0226 323.416 -16.4044C323.865 -16.698 324.325 -16.8057 324.785 -16.4435C325.275 -16.0618 325.315 -15.5724 325.095 -15.034C324.805 -14.3489 324.305 -13.8007 323.795 -13.2722C320.786 -10.0911 318.857 -6.3716 318.037 -2.10401C317.847 -1.11541 318.047 -0.175756 318.287 0.773687C318.837 2.99558 319.976 5.05107 320.406 7.30233C321.856 14.9957 320.116 21.8278 314.548 27.5832C314.238 27.8964 313.868 28.0922 314.238 28.6893C317.227 33.456 317.357 38.6144 316.177 43.8803C314.878 49.6651 311.748 54.5885 308.129 59.2182C307.06 60.5886 306.24 62.1742 304.83 63.2803C304.56 63.4956 304.69 63.6914 304.74 63.9263C306.06 70.0634 305.06 75.9265 302.551 81.5938C301.361 84.2757 299.842 86.7814 298.382 89.3165C297.632 90.6184 297.012 91.9789 296.362 93.3297C295.723 94.6706 294.743 94.7881 293.933 93.5156C292.613 91.421 291.524 89.1991 290.624 86.8891C288.194 80.6443 288.434 74.3995 290.684 68.1547C291.884 64.817 293.353 61.5869 294.803 58.3471C295.053 57.799 295.083 57.3096 294.923 56.7516C294.583 55.5673 294.273 54.3731 293.943 53.1888H293.953ZM257.352 105.193C267.25 104.625 274.318 101.131 279.217 94.4259C283.006 89.248 284.595 83.4731 284.086 76.8368C283.756 77.3849 283.576 77.6687 283.406 77.9624C281.696 80.889 279.887 83.7471 277.877 86.478C276.567 88.2594 275.088 89.894 273.368 91.3133C272.768 91.8027 272.139 92.2725 271.349 92.4291C270.859 92.527 270.419 92.4096 270.159 91.9593C269.879 91.4797 269.959 91.0099 270.319 90.6184C270.509 90.4128 270.759 90.266 270.989 90.1094C272.788 88.8369 274.358 87.3296 275.648 85.5775C277.657 82.8466 279.507 80.0081 281.196 77.0717C281.326 76.8563 281.556 76.6508 281.456 76.2103C279.467 77.4045 277.477 78.4812 276.028 80.2234C273.878 82.7879 271.629 85.2643 268.679 86.938C266.96 87.9169 265.67 89.2187 264.58 90.775C261.481 95.2187 259.522 100.201 257.352 105.212V105.193ZM271.649 45.9554C282.546 40.6503 296.752 22.65 296.352 14.663C292.513 18.0888 288.904 21.6418 285.835 25.7039C284.166 27.9062 282.466 30.0792 281.066 32.4674C280.656 33.1624 280.097 33.3875 279.387 33.0156C278.647 32.6241 278.617 31.9976 279.007 31.332C279.287 30.8524 279.597 30.3826 279.897 29.9128C283.376 24.4119 287.685 19.6059 292.443 15.1426C292.703 14.8979 293.023 14.7217 293.313 14.5063C293.233 14.4378 293.163 14.3693 293.083 14.3008C278.887 18.079 271.079 33.2309 271.659 45.9554H271.649ZM279.097 69.9166C278.567 69.6523 278.077 69.711 277.597 69.7502C276.188 69.8579 274.778 70.0047 273.358 70.1124C267.41 70.5626 262.261 72.7943 257.952 76.8074C254.263 80.2332 251.484 84.3344 249.064 88.6803C248.984 88.8271 248.854 88.974 248.984 89.2285C249.574 89.1893 250.204 89.1599 250.824 89.1012C254.423 88.7782 258.022 88.4258 261.521 87.496C267.71 85.8516 272.099 81.9266 275.568 76.8465C275.928 76.318 276.268 75.7796 276.617 75.2511C275.318 75.9656 274.168 76.7682 272.998 77.5415C270.589 79.137 268.06 80.5366 265.46 81.8091C264.79 82.1321 264.181 82.044 263.821 81.3882C263.451 80.703 263.641 80.1158 264.401 79.7536C264.69 79.6166 264.97 79.4698 265.25 79.3229C268.999 77.4143 272.568 75.2217 275.878 72.6475C276.977 71.7861 278.097 70.9443 279.097 69.9068V69.9166ZM258.792 71.1303C264.76 69.3978 270.479 67.7436 275.418 64.2101C280.456 60.5984 285.945 53.7173 286.225 50.4481C284.116 52.6015 281.956 54.6081 279.697 56.5069C277.517 58.3373 275.258 60.0796 272.968 61.7827C272.308 62.2721 271.669 62.4287 271.119 61.7338C270.509 60.9801 270.869 60.383 271.589 59.9132C271.849 59.737 272.099 59.5412 272.358 59.3553C276.817 56.0763 281.006 52.4938 284.835 48.5101C285.185 48.1479 285.515 47.7662 285.975 47.267C284.455 47.1985 283.156 47.3649 281.876 47.5215C278.557 47.9326 275.458 48.8527 272.878 51.1137C269.159 54.3829 265.9 58.0241 263.251 62.1742C261.481 64.9443 259.992 67.8415 258.802 71.1303H258.792ZM311.648 29.2668C311.389 29.4723 311.489 29.6974 311.509 29.8834C312.088 34.6698 311.119 39.2702 309.759 43.8216C309.579 44.4187 309.359 45.0158 308.989 45.5247C308.669 45.9652 308.279 46.3274 307.65 46.0631C306.99 45.7792 306.81 45.2605 306.95 44.6144C307 44.3795 307.1 44.1544 307.18 43.9195C308.989 38.908 309.699 33.7595 309.069 28.4641C309.019 28.0432 308.999 27.6028 308.739 27.1721C308.499 27.3679 308.339 27.5049 308.189 27.6419C302.871 32.536 300.631 38.5361 301.281 45.652C301.571 48.8722 302.171 52.0436 302.671 55.2247C302.951 56.967 303.361 58.6995 304.26 60.4124C306.13 57.8773 307.979 55.5086 309.649 53.0126C312.068 49.391 313.688 45.466 314.238 41.1593C314.728 37.3615 314.428 33.6714 312.468 30.2651C312.258 29.903 312.098 29.4527 311.648 29.2863V29.2668ZM274.488 47.0712C276.058 46.4546 277.657 45.926 279.317 45.5933C280.986 45.2507 282.666 45.0255 284.375 44.9668C288.274 44.82 288.334 44.8591 290.584 41.7857C293.063 38.4186 295.553 35.0809 296.722 30.9405C299.282 21.8865 302.821 13.2045 307.63 5.0315C307.739 4.84552 307.979 4.66934 307.849 4.40506C305.59 6.4214 303.381 8.4769 301.081 10.4345C300.021 11.335 299.502 12.3138 299.182 13.6939C296.982 23.2569 292.543 31.6453 285.205 38.4577C281.856 41.5704 278.247 44.3697 274.498 47.0615L274.488 47.0712ZM295.953 61.6848C295.033 63.2607 294.463 64.7485 293.883 66.2265C292.113 70.7388 290.834 75.3294 291.384 80.2332C291.794 83.9037 293.113 87.2611 295.013 90.5694C296.732 87.3002 298.622 84.2855 300.171 81.0848C302.181 76.9346 303.161 72.5594 302.921 67.9688C302.721 64.0535 301.361 60.5788 298.422 57.8088C298.172 57.5738 297.942 57.2606 297.472 57.1823C297.512 57.4368 297.522 57.613 297.562 57.7794C299.152 63.4271 299.142 69.1727 298.722 74.9379C298.662 75.7307 298.322 76.3278 297.432 76.269C296.602 76.2201 296.332 75.623 296.362 74.8596C296.402 73.8514 296.432 72.8432 296.492 71.8448C296.702 68.5071 296.712 65.189 295.932 61.6848H295.953ZM306.35 12.5683C305.95 12.8228 305.88 13.185 305.74 13.4884C301.261 23.1982 298.172 33.3386 295.853 43.7139C295.493 45.3192 294.903 46.9244 295.313 48.6275C295.673 50.1153 296.032 51.5933 296.382 53.0811C296.452 53.3845 296.512 53.6978 296.842 53.8544C298.152 54.4808 299.262 55.3813 300.481 56.458C300.421 56.0077 300.401 55.7435 300.351 55.489C299.672 52.0142 299.052 48.5297 298.932 44.9766C298.712 38.9472 299.792 33.2896 304.06 28.611C305.31 27.2406 306.59 25.8899 308.059 24.7349C308.369 24.4902 308.429 24.2748 308.379 23.942C307.789 20.1541 306.84 16.4248 306.36 12.5585L306.35 12.5683ZM315.188 -0.45961C314.808 -0.0289345 314.598 0.186401 314.418 0.421316C312.118 3.37731 310.539 6.70525 309.169 10.1409C308.719 11.2763 308.609 12.4802 308.849 13.7233C309.529 17.2666 310.179 20.8196 310.799 24.3727C310.959 25.283 311.678 25.7528 312.318 26.115C312.698 26.3303 313.118 25.5864 313.478 25.2341C314.438 24.3042 315.238 23.2373 315.897 22.0725C318.187 18.0888 318.857 13.8016 318.337 9.2991C318.127 7.49809 317.707 5.7656 316.757 3.97438C316.377 5.39365 316.257 6.65632 316.087 7.91898C315.877 9.50464 315.687 11.0903 315.438 12.6662C315.328 13.3709 314.918 13.9484 314.078 13.8114C313.238 13.6841 313.068 13.0381 313.108 12.3138C313.108 12.1768 313.158 12.0398 313.178 11.9027C313.768 7.85046 314.258 3.7982 315.188 -0.479187V-0.45961ZM294.073 41.3648C293.993 41.355 293.903 41.3452 293.823 41.3354C293.463 41.8053 293.123 42.2947 292.743 42.7449C291.124 44.6732 289.544 46.6112 289.354 49.2442C289.344 49.4497 289.234 49.6357 289.164 49.8413C286.705 57.0159 282.126 62.5853 275.718 66.755C275.378 66.9704 275.058 67.2053 274.688 67.4598C276.787 67.4402 278.787 67.3619 280.796 67.4206C281.566 67.4402 282.026 67.1857 282.516 66.6572C284.875 64.1025 286.965 61.352 288.894 58.4841C289.974 56.8789 290.794 55.1758 291.234 53.2867C292.153 49.3029 293.123 45.3388 294.073 41.3648ZM280.047 74.2919C280.926 73.8612 281.616 73.5382 282.296 73.1858C282.786 72.9313 283.466 72.8922 283.746 72.3734C285.005 70.0243 286.135 67.6262 287.215 64.954C283.326 68.7322 281.296 71.3554 280.057 74.2821L280.047 74.2919Z" fill="url(#paint10_linear_15_776)"/>
<path d="M274.258 38.9276C274.338 37.8215 274.698 36.9504 275.478 36.2652C275.778 36.0107 276.118 35.8248 276.537 35.9912C277.007 36.1771 277.137 36.5686 277.127 36.9993C277.127 38.1543 276.647 39.1527 275.968 40.0532C275.498 40.6698 274.778 40.5426 274.468 39.8379C274.338 39.5246 274.308 39.1723 274.248 38.9276H274.258Z" fill="url(#paint11_linear_15_776)"/>
<path d="M288.864 25.9975C289.504 26.1541 290.004 26.4674 289.764 27.1525C289.444 28.0824 288.854 28.8557 287.975 29.3744C287.635 29.5702 287.295 29.5506 286.995 29.2961C286.715 29.0612 286.495 28.7284 286.675 28.3858C287.135 27.5343 287.735 26.7806 288.494 26.1541C288.594 26.0661 288.744 26.0465 288.864 26.0073V25.9975Z" fill="url(#paint12_linear_15_776)"/>
<path d="M283.726 34.3468C283.046 34.1999 282.666 33.828 282.856 33.1526C283.056 32.4087 283.496 31.7627 284.006 31.1852C284.255 30.9014 284.615 30.8524 284.975 30.9895C285.305 31.1069 285.485 31.3418 285.535 31.6746C285.615 32.213 284.615 34.0238 284.106 34.2293C283.976 34.2782 283.836 34.3076 283.726 34.337V34.3468Z" fill="url(#paint13_linear_15_776)"/>
<path d="M276.807 32.8688C276.747 33.4071 276.607 34.0335 275.868 34.1118C275.268 34.1804 274.908 33.7007 274.988 33.182C275.068 32.6241 275.298 31.9878 276.028 31.9193C276.627 31.8606 276.797 32.2913 276.807 32.8688Z" fill="url(#paint14_linear_15_776)"/>
<path d="M271.219 56.0273C270.739 55.998 270.389 55.8218 270.429 55.3422C270.479 54.6178 270.969 54.2165 271.659 54.1186C272.099 54.0599 272.429 54.3438 272.399 54.8038C272.349 55.5183 271.899 55.9099 271.219 56.0273Z" fill="url(#paint15_linear_15_776)"/>
<path d="M305.58 36.0792C305.64 35.492 305.69 34.9145 305.76 34.337C305.84 33.7693 306.12 33.319 306.76 33.3484C307.38 33.3777 307.71 33.8084 307.67 34.4055C307.64 35.0515 307.54 35.7073 307.45 36.3533C307.37 36.9504 307.05 37.3223 306.4 37.2636C305.67 37.2049 305.5 36.7057 305.57 36.0792H305.58Z" fill="url(#paint16_linear_15_776)"/>
<path d="M303.98 42.3142C304.14 41.6291 304.31 41.0026 304.36 40.3468C304.39 39.8672 304.81 39.6519 305.26 39.6421C305.72 39.6323 306.12 39.8672 306.18 40.3273C306.3 41.1886 306.21 42.05 305.77 42.833C305.52 43.2735 305.07 43.4105 304.58 43.2441C304.13 43.0875 303.94 42.7351 303.97 42.3142H303.98Z" fill="url(#paint17_linear_15_776)"/>
<path d="M304.24 50.6341C304.28 50.2915 304.3 49.9489 304.36 49.6063C304.46 49.0288 304.76 48.6373 305.43 48.7156C306.02 48.7939 306.28 49.1855 306.27 49.7336C306.27 50.2524 306.23 50.7711 306.15 51.2801C306.06 51.8184 305.82 52.3079 305.13 52.2295C304.44 52.1512 304.2 51.6912 304.26 51.0452C304.27 50.9082 304.27 50.7711 304.28 50.6341H304.26H304.24Z" fill="url(#paint18_linear_15_776)"/>
<path d="M298.912 79.597C298.632 80.4388 298.542 81.3784 298.082 82.2104C297.822 82.69 297.392 82.9249 296.842 82.7585C296.242 82.5823 296.152 82.0832 296.292 81.584C296.532 80.752 296.812 79.9396 297.122 79.137C297.312 78.6573 297.722 78.4616 298.242 78.6084C298.712 78.7356 298.902 79.088 298.912 79.597Z" fill="url(#paint19_linear_15_776)"/>
<defs>
<linearGradient id="paint0_linear_15_776" x1="327.031" y1="56.1678" x2="441.381" y2="56.6367" gradientUnits="userSpaceOnUse">
<stop stop-color="#EEDEBC"/>
<stop offset="0.06" stop-color="#DDC5A3"/>
<stop offset="0.14" stop-color="#C9A885"/>
<stop offset="0.26" stop-color="#9A7A5F"/>
<stop offset="0.36" stop-color="#C9A885"/>
<stop offset="0.49" stop-color="#EEDEBC"/>
<stop offset="0.54" stop-color="#DDC5A3"/>
<stop offset="0.61" stop-color="#C9A885"/>
<stop offset="0.72" stop-color="#9A7A5F"/>
<stop offset="0.84" stop-color="#C9A885"/>
<stop offset="1" stop-color="#EEDEBC"/>
</linearGradient>
<linearGradient id="paint1_linear_15_776" x1="405.47" y1="56.6914" x2="444.969" y2="56.8534" gradientUnits="userSpaceOnUse">
<stop stop-color="#EEDEBC"/>
<stop offset="0.06" stop-color="#DDC5A3"/>
<stop offset="0.14" stop-color="#C9A885"/>
<stop offset="0.26" stop-color="#9A7A5F"/>
<stop offset="0.36" stop-color="#C9A885"/>
<stop offset="0.49" stop-color="#EEDEBC"/>
<stop offset="0.54" stop-color="#DDC5A3"/>
<stop offset="0.61" stop-color="#C9A885"/>
<stop offset="0.72" stop-color="#9A7A5F"/>
<stop offset="0.84" stop-color="#C9A885"/>
<stop offset="1" stop-color="#EEDEBC"/>
</linearGradient>
<linearGradient id="paint2_linear_15_776" x1="194.835" y1="-4.99911" x2="230.865" y2="-4.85138" gradientUnits="userSpaceOnUse">
<stop stop-color="#EEDEBC"/>
<stop offset="0.06" stop-color="#DDC5A3"/>
<stop offset="0.14" stop-color="#C9A885"/>
<stop offset="0.26" stop-color="#9A7A5F"/>
<stop offset="0.36" stop-color="#C9A885"/>
<stop offset="0.49" stop-color="#EEDEBC"/>
<stop offset="0.54" stop-color="#DDC5A3"/>
<stop offset="0.61" stop-color="#C9A885"/>
<stop offset="0.72" stop-color="#9A7A5F"/>
<stop offset="0.84" stop-color="#C9A885"/>
<stop offset="1" stop-color="#EEDEBC"/>
</linearGradient>
<linearGradient id="paint3_linear_15_776" x1="0.183462" y1="9.41728" x2="41.1027" y2="9.58505" gradientUnits="userSpaceOnUse">
<stop stop-color="#EEDEBC"/>
<stop offset="0.06" stop-color="#DDC5A3"/>
<stop offset="0.14" stop-color="#C9A885"/>
<stop offset="0.26" stop-color="#9A7A5F"/>
<stop offset="0.36" stop-color="#C9A885"/>
<stop offset="0.49" stop-color="#EEDEBC"/>
<stop offset="0.54" stop-color="#DDC5A3"/>
<stop offset="0.61" stop-color="#C9A885"/>
<stop offset="0.72" stop-color="#9A7A5F"/>
<stop offset="0.84" stop-color="#C9A885"/>
<stop offset="1" stop-color="#EEDEBC"/>
</linearGradient>
<linearGradient id="paint4_linear_15_776" x1="328.888" y1="0.832914" x2="388.472" y2="1.07722" gradientUnits="userSpaceOnUse">
<stop stop-color="#EEDEBC"/>
<stop offset="0.06" stop-color="#DDC5A3"/>
<stop offset="0.14" stop-color="#C9A885"/>
<stop offset="0.26" stop-color="#9A7A5F"/>
<stop offset="0.36" stop-color="#C9A885"/>
<stop offset="0.49" stop-color="#EEDEBC"/>
<stop offset="0.54" stop-color="#DDC5A3"/>
<stop offset="0.61" stop-color="#C9A885"/>
<stop offset="0.72" stop-color="#9A7A5F"/>
<stop offset="0.84" stop-color="#C9A885"/>
<stop offset="1" stop-color="#EEDEBC"/>
</linearGradient>
<linearGradient id="paint5_linear_15_776" x1="373.13" y1="2.45544" x2="438.423" y2="2.72315" gradientUnits="userSpaceOnUse">
<stop stop-color="#EEDEBC"/>
<stop offset="0.06" stop-color="#DDC5A3"/>
<stop offset="0.14" stop-color="#C9A885"/>
<stop offset="0.26" stop-color="#9A7A5F"/>
<stop offset="0.36" stop-color="#C9A885"/>
<stop offset="0.49" stop-color="#EEDEBC"/>
<stop offset="0.54" stop-color="#DDC5A3"/>
<stop offset="0.61" stop-color="#C9A885"/>
<stop offset="0.72" stop-color="#9A7A5F"/>
<stop offset="0.84" stop-color="#C9A885"/>
<stop offset="1" stop-color="#EEDEBC"/>
</linearGradient>
<linearGradient id="paint6_linear_15_776" x1="180.084" y1="42.3763" x2="275.449" y2="42.7673" gradientUnits="userSpaceOnUse">
<stop stop-color="#EEDEBC"/>
<stop offset="0.06" stop-color="#DDC5A3"/>
<stop offset="0.14" stop-color="#C9A885"/>
<stop offset="0.26" stop-color="#9A7A5F"/>
<stop offset="0.36" stop-color="#C9A885"/>
<stop offset="0.49" stop-color="#EEDEBC"/>
<stop offset="0.54" stop-color="#DDC5A3"/>
<stop offset="0.61" stop-color="#C9A885"/>
<stop offset="0.72" stop-color="#9A7A5F"/>
<stop offset="0.84" stop-color="#C9A885"/>
<stop offset="1" stop-color="#EEDEBC"/>
</linearGradient>
<linearGradient id="paint7_linear_15_776" x1="84.0312" y1="22.0016" x2="194.642" y2="22.4551" gradientUnits="userSpaceOnUse">
<stop stop-color="#EEDEBC"/>
<stop offset="0.06" stop-color="#DDC5A3"/>
<stop offset="0.14" stop-color="#C9A885"/>
<stop offset="0.26" stop-color="#9A7A5F"/>
<stop offset="0.36" stop-color="#C9A885"/>
<stop offset="0.49" stop-color="#EEDEBC"/>
<stop offset="0.54" stop-color="#DDC5A3"/>
<stop offset="0.61" stop-color="#C9A885"/>
<stop offset="0.72" stop-color="#9A7A5F"/>
<stop offset="0.84" stop-color="#C9A885"/>
<stop offset="1" stop-color="#EEDEBC"/>
</linearGradient>
<linearGradient id="paint8_linear_15_776" x1="314.111" y1="74.1761" x2="342.983" y2="74.2945" gradientUnits="userSpaceOnUse">
<stop stop-color="#EEDEBC"/>
<stop offset="0.06" stop-color="#DDC5A3"/>
<stop offset="0.14" stop-color="#C9A885"/>
<stop offset="0.26" stop-color="#9A7A5F"/>
<stop offset="0.36" stop-color="#C9A885"/>
<stop offset="0.49" stop-color="#EEDEBC"/>
<stop offset="0.54" stop-color="#DDC5A3"/>
<stop offset="0.61" stop-color="#C9A885"/>
<stop offset="0.72" stop-color="#9A7A5F"/>
<stop offset="0.84" stop-color="#C9A885"/>
<stop offset="1" stop-color="#EEDEBC"/>
</linearGradient>
<linearGradient id="paint9_linear_15_776" x1="28.255" y1="12.2389" x2="112.973" y2="12.5863" gradientUnits="userSpaceOnUse">
<stop stop-color="#EEDEBC"/>
<stop offset="0.06" stop-color="#DDC5A3"/>
<stop offset="0.14" stop-color="#C9A885"/>
<stop offset="0.26" stop-color="#9A7A5F"/>
<stop offset="0.36" stop-color="#C9A885"/>
<stop offset="0.49" stop-color="#EEDEBC"/>
<stop offset="0.54" stop-color="#DDC5A3"/>
<stop offset="0.61" stop-color="#C9A885"/>
<stop offset="0.72" stop-color="#9A7A5F"/>
<stop offset="0.84" stop-color="#C9A885"/>
<stop offset="1" stop-color="#EEDEBC"/>
</linearGradient>
<linearGradient id="paint10_linear_15_776" x1="245.625" y1="45.4333" x2="324.954" y2="45.7585" gradientUnits="userSpaceOnUse">
<stop stop-color="#EEDEBC"/>
<stop offset="0.06" stop-color="#DDC5A3"/>
<stop offset="0.14" stop-color="#C9A885"/>
<stop offset="0.26" stop-color="#9A7A5F"/>
<stop offset="0.36" stop-color="#C9A885"/>
<stop offset="0.49" stop-color="#EEDEBC"/>
<stop offset="0.54" stop-color="#DDC5A3"/>
<stop offset="0.61" stop-color="#C9A885"/>
<stop offset="0.72" stop-color="#9A7A5F"/>
<stop offset="0.84" stop-color="#C9A885"/>
<stop offset="1" stop-color="#EEDEBC"/>
</linearGradient>
<linearGradient id="paint11_linear_15_776" x1="274.258" y1="38.1655" x2="277.127" y2="38.1773" gradientUnits="userSpaceOnUse">
<stop stop-color="#EEDEBC"/>
<stop offset="0.06" stop-color="#DDC5A3"/>
<stop offset="0.14" stop-color="#C9A885"/>
<stop offset="0.26" stop-color="#9A7A5F"/>
<stop offset="0.36" stop-color="#C9A885"/>
<stop offset="0.49" stop-color="#EEDEBC"/>
<stop offset="0.54" stop-color="#DDC5A3"/>
<stop offset="0.61" stop-color="#C9A885"/>
<stop offset="0.72" stop-color="#9A7A5F"/>
<stop offset="0.84" stop-color="#C9A885"/>
<stop offset="1" stop-color="#EEDEBC"/>
</linearGradient>
<linearGradient id="paint12_linear_15_776" x1="286.608" y1="27.7212" x2="289.827" y2="27.7344" gradientUnits="userSpaceOnUse">
<stop stop-color="#EEDEBC"/>
<stop offset="0.06" stop-color="#DDC5A3"/>
<stop offset="0.14" stop-color="#C9A885"/>
<stop offset="0.26" stop-color="#9A7A5F"/>
<stop offset="0.36" stop-color="#C9A885"/>
<stop offset="0.49" stop-color="#EEDEBC"/>
<stop offset="0.54" stop-color="#DDC5A3"/>
<stop offset="0.61" stop-color="#C9A885"/>
<stop offset="0.72" stop-color="#9A7A5F"/>
<stop offset="0.84" stop-color="#C9A885"/>
<stop offset="1" stop-color="#EEDEBC"/>
</linearGradient>
<linearGradient id="paint13_linear_15_776" x1="282.809" y1="32.6101" x2="285.538" y2="32.6213" gradientUnits="userSpaceOnUse">
<stop stop-color="#EEDEBC"/>
<stop offset="0.06" stop-color="#DDC5A3"/>
<stop offset="0.14" stop-color="#C9A885"/>
<stop offset="0.26" stop-color="#9A7A5F"/>
<stop offset="0.36" stop-color="#C9A885"/>
<stop offset="0.49" stop-color="#EEDEBC"/>
<stop offset="0.54" stop-color="#DDC5A3"/>
<stop offset="0.61" stop-color="#C9A885"/>
<stop offset="0.72" stop-color="#9A7A5F"/>
<stop offset="0.84" stop-color="#C9A885"/>
<stop offset="1" stop-color="#EEDEBC"/>
</linearGradient>
<linearGradient id="paint14_linear_15_776" x1="274.979" y1="32.9807" x2="276.799" y2="32.9881" gradientUnits="userSpaceOnUse">
<stop stop-color="#EEDEBC"/>
<stop offset="0.06" stop-color="#DDC5A3"/>
<stop offset="0.14" stop-color="#C9A885"/>
<stop offset="0.26" stop-color="#9A7A5F"/>
<stop offset="0.36" stop-color="#C9A885"/>
<stop offset="0.49" stop-color="#EEDEBC"/>
<stop offset="0.54" stop-color="#DDC5A3"/>
<stop offset="0.61" stop-color="#C9A885"/>
<stop offset="0.72" stop-color="#9A7A5F"/>
<stop offset="0.84" stop-color="#C9A885"/>
<stop offset="1" stop-color="#EEDEBC"/>
</linearGradient>
<linearGradient id="paint15_linear_15_776" x1="270.43" y1="55.0448" x2="272.389" y2="55.0529" gradientUnits="userSpaceOnUse">
<stop stop-color="#EEDEBC"/>
<stop offset="0.06" stop-color="#DDC5A3"/>
<stop offset="0.14" stop-color="#C9A885"/>
<stop offset="0.26" stop-color="#9A7A5F"/>
<stop offset="0.36" stop-color="#C9A885"/>
<stop offset="0.49" stop-color="#EEDEBC"/>
<stop offset="0.54" stop-color="#DDC5A3"/>
<stop offset="0.61" stop-color="#C9A885"/>
<stop offset="0.72" stop-color="#9A7A5F"/>
<stop offset="0.84" stop-color="#C9A885"/>
<stop offset="1" stop-color="#EEDEBC"/>
</linearGradient>
<linearGradient id="paint16_linear_15_776" x1="305.572" y1="35.2739" x2="307.672" y2="35.2825" gradientUnits="userSpaceOnUse">
<stop stop-color="#EEDEBC"/>
<stop offset="0.06" stop-color="#DDC5A3"/>
<stop offset="0.14" stop-color="#C9A885"/>
<stop offset="0.26" stop-color="#9A7A5F"/>
<stop offset="0.36" stop-color="#C9A885"/>
<stop offset="0.49" stop-color="#EEDEBC"/>
<stop offset="0.54" stop-color="#DDC5A3"/>
<stop offset="0.61" stop-color="#C9A885"/>
<stop offset="0.72" stop-color="#9A7A5F"/>
<stop offset="0.84" stop-color="#C9A885"/>
<stop offset="1" stop-color="#EEDEBC"/>
</linearGradient>
<linearGradient id="paint17_linear_15_776" x1="303.977" y1="41.4439" x2="306.227" y2="41.4531" gradientUnits="userSpaceOnUse">
<stop stop-color="#EEDEBC"/>
<stop offset="0.06" stop-color="#DDC5A3"/>
<stop offset="0.14" stop-color="#C9A885"/>
<stop offset="0.26" stop-color="#9A7A5F"/>
<stop offset="0.36" stop-color="#C9A885"/>
<stop offset="0.49" stop-color="#EEDEBC"/>
<stop offset="0.54" stop-color="#DDC5A3"/>
<stop offset="0.61" stop-color="#C9A885"/>
<stop offset="0.72" stop-color="#9A7A5F"/>
<stop offset="0.84" stop-color="#C9A885"/>
<stop offset="1" stop-color="#EEDEBC"/>
</linearGradient>
<linearGradient id="paint18_linear_15_776" x1="304.24" y1="50.45" x2="306.26" y2="50.4583" gradientUnits="userSpaceOnUse">
<stop stop-color="#EEDEBC"/>
<stop offset="0.06" stop-color="#DDC5A3"/>
<stop offset="0.14" stop-color="#C9A885"/>
<stop offset="0.26" stop-color="#9A7A5F"/>
<stop offset="0.36" stop-color="#C9A885"/>
<stop offset="0.49" stop-color="#EEDEBC"/>
<stop offset="0.54" stop-color="#DDC5A3"/>
<stop offset="0.61" stop-color="#C9A885"/>
<stop offset="0.72" stop-color="#9A7A5F"/>
<stop offset="0.84" stop-color="#C9A885"/>
<stop offset="1" stop-color="#EEDEBC"/>
</linearGradient>
<linearGradient id="paint19_linear_15_776" x1="296.238" y1="80.6542" x2="298.908" y2="80.6651" gradientUnits="userSpaceOnUse">
<stop stop-color="#EEDEBC"/>
<stop offset="0.06" stop-color="#DDC5A3"/>
<stop offset="0.14" stop-color="#C9A885"/>
<stop offset="0.26" stop-color="#9A7A5F"/>
<stop offset="0.36" stop-color="#C9A885"/>
<stop offset="0.49" stop-color="#EEDEBC"/>
<stop offset="0.54" stop-color="#DDC5A3"/>
<stop offset="0.61" stop-color="#C9A885"/>
<stop offset="0.72" stop-color="#9A7A5F"/>
<stop offset="0.84" stop-color="#C9A885"/>
<stop offset="1" stop-color="#EEDEBC"/>
</linearGradient>
</defs>
</svg>
