<svg width="276" height="70" viewBox="0 0 276 70" fill="none" xmlns="http://www.w3.org/2000/svg">
<path d="M275.88 50.162C275.88 51.023 267.162 56.7274 260.274 61.3555C254.031 65.553 245.959 68.8895 241.654 68.8895C239.501 68.8895 235.842 67.2751 234.981 64.1538C234.658 62.9699 234.55 60.2792 234.873 58.3418C232.613 59.8486 228.846 62.1089 226.478 63.2928C222.281 65.4454 217.114 66.7369 215.177 66.7369C213.24 66.7369 208.719 65.6606 208.719 60.0639C208.719 56.1892 213.347 49.5162 218.514 44.0271C223.465 38.538 230.568 32.4031 233.689 32.5107C237.026 32.6183 240.685 34.8786 242.73 37.6769C244.345 39.7219 244.668 42.0897 244.991 43.166C248.219 41.2287 246.713 40.0448 248.542 40.26C250.049 40.3677 251.771 41.444 251.556 42.8432C251.341 44.0271 249.403 46.7178 246.713 49.6238C244.991 51.5612 243.161 53.6061 241.331 55.2206C239.824 58.7724 238.748 59.5258 239.071 61.786C239.286 63.4004 240.362 64.5843 242.3 64.5843C244.668 64.5843 249.942 62.7546 257.906 58.1266C263.288 55.0053 272.867 47.9018 274.373 47.7941C275.665 47.6865 275.88 48.978 275.88 50.162ZM240.793 43.7042C240.793 41.6592 237.241 36.7083 234.335 36.8159C231.86 36.9235 225.51 42.4126 221.204 47.1483C217.437 51.3459 212.809 58.4495 213.025 60.0639C213.347 62.1089 214.101 62.4318 216.253 62.647C217.545 62.7546 221.743 61.0326 225.187 59.2029C231.86 55.7587 237.995 51.1306 240.578 47.6865C240.578 46.6102 240.793 45.3186 240.793 43.7042Z" fill="#272C26"/>
<path d="M216.915 49.3009C217.13 50.8077 208.305 57.9113 204.215 60.7097C199.264 64.1538 194.313 65.8759 191.084 65.8759C184.411 65.8759 182.904 61.0326 182.904 56.835C183.012 53.2832 184.196 50.4849 184.626 49.3009C182.689 49.3009 180.106 48.8704 178.384 48.8704C175.801 48.8704 171.818 49.4086 170.204 49.3009C168.805 51.023 167.513 53.1756 165.468 55.7587C163.316 58.6647 158.257 66.1988 155.566 65.8759C154.92 65.7683 154.059 66.0912 153.844 65.4454C152.876 63.0775 156.965 59.0952 158.795 56.6197C160.625 54.1443 163.531 49.8391 164.5 47.1483C160.84 49.0857 153.521 55.5435 150.831 55.7587C150.185 55.7587 149.647 54.8977 149.539 54.2519C149.001 51.023 155.566 49.5162 162.67 43.2737C165.468 40.7982 169.989 36.0625 173.54 36.493C174.617 36.6006 175.155 37.6769 175.37 38.7532C175.801 40.7982 174.401 43.2737 173.325 44.9957C175.801 45.3186 176.662 44.9957 179.352 44.9957C180.967 44.9957 184.196 45.7492 185.595 45.4263C186.779 44.2423 188.178 42.4126 189.362 40.9058C190.869 39.0761 193.452 35.7396 195.604 35.7396C196.896 35.7396 198.726 36.0625 198.403 37.4617C197.865 39.7219 195.927 41.7669 194.743 43.7042C191.084 49.7314 187.855 52.7451 187.855 56.835C187.855 60.4944 189.147 61.786 192.376 61.786C194.205 61.786 197.757 60.7097 201.632 58.1266C205.291 55.6511 214.117 48.0094 215.193 47.7941C216.269 47.5789 216.808 48.2246 216.915 49.3009Z" fill="#272C26"/>
<path d="M157.95 49.3009C158.165 50.8077 149.34 57.9113 145.25 60.7097C140.299 64.1538 135.348 65.8759 132.119 65.8759C125.446 65.8759 123.939 61.0326 123.939 56.835C124.047 53.2832 125.231 50.4849 125.661 49.3009C123.724 49.3009 121.141 48.8704 119.419 48.8704C116.836 48.8704 112.853 49.4086 111.239 49.3009C109.84 51.023 108.548 53.1756 106.503 55.7587C104.351 58.6647 99.2919 66.1988 96.6012 65.8759C95.9554 65.7683 95.0944 66.0912 94.8791 65.4454C93.9104 63.0775 98.0004 59.0952 99.8301 56.6197C101.66 54.1443 104.566 49.8391 105.534 47.1483C101.875 49.0857 94.5562 55.5435 91.8655 55.7587C91.2197 55.7587 90.6815 54.8977 90.5739 54.2519C90.0358 51.023 96.6012 49.5162 103.705 43.2737C106.503 40.7982 111.024 36.0625 114.575 36.493C115.652 36.6006 116.19 37.6769 116.405 38.7532C116.836 40.7982 115.436 43.2737 114.36 44.9957C116.836 45.3186 117.697 44.9957 120.387 44.9957C122.002 44.9957 125.231 45.7492 126.63 45.4263C127.814 44.2423 129.213 42.4126 130.397 40.9058C131.904 39.0761 134.487 35.7396 136.639 35.7396C137.931 35.7396 139.761 36.0625 139.438 37.4617C138.9 39.7219 136.962 41.7669 135.778 43.7042C132.119 49.7314 128.89 52.7451 128.89 56.835C128.89 60.4944 130.182 61.786 133.411 61.786C135.24 61.786 138.792 60.7097 142.667 58.1266C146.326 55.6511 155.152 48.0094 156.228 47.7941C157.304 47.5789 157.842 48.2246 157.95 49.3009Z" fill="#272C26"/>
<path d="M110.63 3.45068C110.63 6.35668 105.464 13.8908 99.8671 22.6088C96.6382 27.775 90.0728 37.2464 86.0905 42.8431C85.8752 45.7491 86.0905 44.5652 85.8752 45.6415C85.4447 47.4712 80.709 52.8527 77.0496 56.835C73.8207 60.4944 71.6681 62.647 69.3002 64.3691C66.3942 66.6293 61.4433 69.2124 58.7525 69.32C57.5686 69.32 56.4923 68.5666 55.9542 67.3827C55.2008 65.7683 56.8152 62.8623 57.6762 62.8623C58.2144 62.8623 58.4296 62.8623 59.1831 62.8623C61.7662 62.9699 64.3493 61.1402 66.0714 60.0639C68.9774 58.1266 71.2376 55.6511 73.1749 52.3146C71.5605 51.7764 69.5155 51.3459 67.1477 50.5925C65.8561 50.162 64.8874 50.0543 63.7035 49.5162C61.8738 48.6551 61.0128 47.0407 60.9051 44.9957C60.7975 41.6592 65.4256 39.1837 67.3629 39.399C69.6231 39.6143 76.942 41.6592 80.0632 42.8431C82.6463 38.8608 88.8889 31.0039 94.0551 23.0393C97.8221 17.2273 101.374 11.7382 103.096 7.97112C97.7145 10.5542 81.0319 20.8867 69.7308 27.3445C64.7798 30.1428 42.5005 44.4576 32.2756 50.162C22.589 55.5434 9.56578 62.2165 6.65978 62.0012C3.96903 61.786 0.740145 60.3868 0.847774 57.696C0.955404 55.2206 4.07666 46.5026 7.52081 40.0448C10.4268 34.7709 13.7633 27.5597 16.3464 27.3445C17.638 27.2368 18.3914 28.7437 18.499 29.9276C18.7143 32.4031 13.5481 38.4303 11.1802 44.1347C9.45815 48.2246 7.95133 52.8527 7.30556 54.8977C6.87504 56.2969 6.87504 57.2655 7.95133 57.4808C10.5344 57.9113 22.1585 51.1306 30.9841 46.2873C42.7157 39.8295 59.9365 28.3131 68.0087 23.6851C82.754 15.1823 106.002 -0.423992 108.262 0.00652772C109.338 0.221791 110.63 1.51334 110.63 3.45068Z" fill="#272C26"/>
</svg>
