<svg width="271" height="135" viewBox="0 0 271 135" fill="none" xmlns="http://www.w3.org/2000/svg">
<path d="M268.345 8.61037C268.345 11.624 264.793 16.7902 261.349 21.0954C258.227 24.9701 253.384 29.7058 251.985 29.921C251.016 29.921 249.94 28.8447 249.94 27.8761C250.048 26.4769 256.075 21.9564 258.981 17.6513C261.241 14.3147 264.039 11.624 264.039 8.50274C264.039 5.59674 258.335 4.84333 255.537 4.84333C252.846 4.84333 245.204 6.35014 238.854 8.39511C231.212 10.763 221.31 16.7902 220.127 16.8979C219.265 17.0055 218.404 16.2521 218.404 15.0682C218.404 12.9156 228.845 7.85696 236.486 4.84333C244.02 2.04496 253.922 0.538147 256.505 0.538147C261.779 0.538147 268.345 3.01363 268.345 8.61037ZM270.39 54.4606C270.497 56.0751 265.439 59.3039 262.317 61.1337C257.797 63.7168 250.693 67.4838 244.881 67.4838C242.298 67.4838 238.962 64.7931 238.316 62.1023C238.101 61.026 238.316 58.9811 238.531 57.5819C236.056 59.4116 232.934 61.5642 230.674 63.1786C225.616 66.4075 216.252 72.65 213.669 72.4348C211.301 72.2195 209.041 70.0669 209.364 67.8067C209.686 65.5465 212.485 60.0574 213.884 57.6895C210.009 60.0574 207.534 62.2099 205.704 62.1023C205.166 61.6718 204.52 61.1336 204.52 60.4879C204.52 57.3666 206.78 58.3353 216.898 51.0165C220.019 48.7562 222.817 45.5273 224.647 45.5273C225.938 45.5273 227.122 46.2808 227.122 47.5723C227.015 50.0478 222.064 54.0301 219.696 57.0437C218.189 59.0887 214.207 64.7931 214.207 66.7304C214.207 67.2685 214.207 67.8067 214.745 67.9143C217.221 68.2372 223.894 62.6405 229.598 58.9811C235.625 55.1064 243.267 48.541 244.881 48.541C247.034 48.541 246.926 49.6173 246.926 50.8012C246.926 52.308 245.312 53.4919 244.128 55.4293C243.052 57.3666 242.621 59.7345 242.621 60.4879C242.621 61.8871 244.02 63.2862 245.527 63.3939C249.079 63.7168 253.707 61.3489 258.55 58.8734C263.394 56.3979 267.699 53.4919 268.99 53.4919C269.851 53.4919 270.282 53.4919 270.39 54.4606Z" fill="#272C26"/>
<path d="M215.116 54.2454C215.008 56.5056 205.645 61.9947 200.694 65.4389C195.527 68.9906 188.639 71.8966 185.625 72.3272C182.612 72.7577 178.522 69.4212 178.522 66.2999C178.522 62.3176 182.074 53.9225 186.056 48.4334C190.038 42.9443 193.267 40.8993 195.958 40.8993C199.187 40.8993 201.662 45.0968 201.555 48.2181C201.339 53.1691 197.034 56.5056 192.944 58.7658C189.608 60.5955 186.164 61.5642 183.688 62.21C182.935 63.6092 182.827 64.4702 182.827 65.8694C182.827 67.4838 184.98 67.9143 186.271 68.022C187.778 68.1296 191.115 66.6228 197.249 63.071C203.922 59.1963 212.318 52.7386 213.609 52.7386C214.255 52.7386 215.224 52.6309 215.116 54.2454ZM197.249 48.0028C197.249 47.0342 196.496 45.635 195.312 45.635C194.021 45.635 191.33 48.1105 189.715 50.8012C188.639 52.5233 186.271 56.6132 185.625 57.6895C187.563 57.3666 191.115 56.398 193.59 54.0301C195.527 52.2004 197.249 51.3394 197.249 48.0028Z" fill="#272C26"/>
<path d="M185.619 56.1827C185.619 58.12 174.211 63.8244 170.121 66.2999C166.677 68.3448 157.528 72.5424 152.469 72.5424C147.841 72.5424 144.828 70.928 144.935 67.5914C145.043 64.5778 148.81 59.9497 152.039 55.3217C153.546 53.1691 156.775 49.1868 156.344 46.9265C156.129 45.7426 155.806 45.0968 154.622 44.9892C153.008 44.8816 147.626 48.3257 143.429 51.2317C138.908 54.353 132.989 60.0574 130.944 59.6268C129.975 59.4116 129.544 58.2277 129.544 57.259C129.544 56.5056 135.787 51.6622 140.2 48.6486C145.581 44.9892 151.286 40.684 155.053 40.684C158.281 40.684 160.865 43.2671 160.649 46.496C160.434 50.8012 157.743 54.1377 155.483 57.6895C153.223 61.2413 149.779 65.8694 149.886 67.1609C149.994 68.4525 151.716 68.5601 152.9 68.6677C154.837 68.7754 158.712 68.1296 168.399 62.8557C173.027 60.3803 182.498 54.5682 183.682 54.4606C184.974 54.353 185.619 54.8911 185.619 56.1827Z" fill="#272C26"/>
<path d="M137.316 54.0301C137.209 56.8284 131.397 60.165 126.338 63.5015C119.235 68.1296 113.1 71.789 107.18 71.8966C104.489 71.8966 102.66 68.9906 102.875 66.2999C103.09 63.6091 106.857 59.1963 109.333 56.3979C110.624 54.8911 113.853 52.5233 114.714 49.7249C111.485 51.5546 107.934 52.6309 103.521 54.6759C97.924 57.7971 88.8831 61.4565 85.439 62.6405C81.8872 66.6228 65.6351 85.5656 52.289 99.4498C40.4498 111.827 21.2917 135.075 18.7086 134.968C18.0628 134.968 17.0941 134.645 16.9865 133.891C16.7712 130.878 37.0056 110.966 49.9212 96.4362C57.4553 88.0411 60.2536 85.2427 69.2945 74.9102C75.6447 67.699 85.9771 55.7522 88.6679 52.5233C86.6229 53.3843 87.0534 53.3843 84.5779 54.6759C81.8872 56.1827 80.1651 58.981 78.5507 58.7658C77.582 58.6582 76.9362 57.7971 76.3981 56.8285C75.7523 55.5369 82.1025 51.7699 86.9458 49.0791C91.4662 46.6036 93.6188 44.7739 97.063 42.8366C99.4308 40.8993 101.153 39.823 102.552 40.1459C103.628 40.3611 104.167 40.7916 104.167 41.7603C104.167 43.1595 100.722 45.5273 98.5698 48.0028C95.9867 50.9088 93.0807 54.2453 92.112 55.5369C94.9104 54.8911 97.2782 54.0301 105.673 49.7249C109.871 47.4647 119.45 43.6976 121.387 43.6976C122.248 43.6976 122.571 44.8816 122.464 45.8502C122.141 48.0028 119.558 51.3393 114.499 56.3979C112.346 58.6582 107.073 64.1473 107.18 66.2999C107.288 67.3762 107.611 68.0219 108.687 68.0219C110.947 68.0219 118.589 64.2549 124.401 60.4879C128.814 57.5819 134.303 53.2767 135.594 53.169C136.348 53.0614 137.316 53.2767 137.316 54.0301Z" fill="#272C26"/>
<path d="M83.4167 54.2454C83.3091 56.5056 73.9453 61.9947 68.9943 65.4389C63.8281 68.9906 56.9398 71.8966 53.9262 72.3272C50.9126 72.7577 46.8226 69.4212 46.8226 66.2999C46.8226 62.3176 50.3744 53.9225 54.3567 48.4334C58.339 42.9443 61.5679 40.8993 64.2586 40.8993C67.4875 40.8993 69.963 45.0968 69.8554 48.2181C69.6401 53.1691 65.3349 56.5056 61.245 58.7658C57.9085 60.5955 54.4643 61.5642 51.9889 62.21C51.2354 63.6092 51.1278 64.4702 51.1278 65.8694C51.1278 67.4838 53.2804 67.9143 54.572 68.022C56.0788 68.1296 59.4153 66.6228 65.5502 63.071C72.2232 59.1963 80.6184 52.7386 81.9099 52.7386C82.5557 52.7386 83.5243 52.6309 83.4167 54.2454ZM65.5502 48.0028C65.5502 47.0342 64.7968 45.635 63.6129 45.635C62.3213 45.635 59.6306 48.1105 58.0161 50.8012C56.9398 52.5233 54.572 56.6132 53.9262 57.6895C55.8635 57.3666 59.4153 56.398 61.8908 54.0301C63.8281 52.2004 65.5502 51.3394 65.5502 48.0028Z" fill="#272C26"/>
<path d="M62.4256 10.763C62.4256 18.5123 58.8738 24.7548 54.8915 30.0287C51.0168 35.0873 41.7607 44.2358 38.2089 43.8053C36.2715 43.59 34.98 41.8679 34.8724 40.0382C34.7647 38.1009 37.3478 35.0873 39.6081 32.3965C42.5141 28.7371 46.0658 24.5396 48.5413 24.4319C50.2634 24.3243 51.6626 25.6159 51.9855 26.154C54.3533 23.248 57.9051 18.297 57.9051 9.90193C57.9051 6.45778 55.4296 4.41282 53.0618 4.41282C47.2498 4.41282 32.935 15.0682 23.2484 26.6922C13.3464 38.6391 5.05894 56.6132 5.16657 62.4252C5.2742 69.0983 10.9786 70.8203 14.5303 70.928C22.6026 71.1432 32.5045 65.7617 39.2852 61.2413C43.8056 58.2277 49.8329 54.1377 51.1244 53.9225C51.7702 53.8148 52.6313 54.6759 52.9541 56.398C53.1694 57.6895 45.3124 62.7481 39.8233 65.977C30.4595 71.3585 22.6026 75.556 13.4541 75.2331C7.96494 75.0179 -0.860695 70.6051 0.215602 61.6718C1.07664 54.1377 9.36412 36.917 19.8042 24.4319C30.4595 11.5164 45.4201 0 52.6313 0C60.4882 0 62.4256 5.812 62.4256 10.763Z" fill="#272C26"/>
</svg>
